<svg width="22" height="22" viewBox="0 0 22 22" fill="none" xmlns="http://www.w3.org/2000/svg">
<path d="M11 20C15.9706 20 20 15.9706 20 11C20 6.02944 15.9706 2 11 2C6.02944 2 2 6.02944 2 11C2 15.9706 6.02944 20 11 20Z" stroke="black" stroke-width="2.17271" stroke-linecap="round" stroke-linejoin="round"/>
<path d="M8.38098 8.3C8.59258 7.6985 9.01022 7.1913 9.55994 6.86822C10.1097 6.54514 10.756 6.42704 11.3844 6.53484C12.0129 6.64264 12.5829 6.96937 12.9936 7.45718C13.4042 7.94498 13.6289 8.56237 13.628 9.2C13.628 11 10.928 11.9 10.928 11.9" stroke="black" stroke-width="2.17271" stroke-linecap="round" stroke-linejoin="round"/>
<path d="M11 15.5H11.0087" stroke="black" stroke-width="2.17271" stroke-linecap="round" stroke-linejoin="round"/>
</svg>
