<svg width="22" height="22" viewBox="0 0 22 22" fill="none" xmlns="http://www.w3.org/2000/svg">
<path d="M10.9751 13.6957C12.4776 13.6957 13.6957 12.4776 13.6957 10.9751C13.6957 9.47265 12.4776 8.25464 10.9751 8.25464C9.47265 8.25464 8.25464 9.47265 8.25464 10.9751C8.25464 12.4776 9.47265 13.6957 10.9751 13.6957Z" stroke="black" stroke-width="1.81367" stroke-linecap="round" stroke-linejoin="round"/>
<path d="M17.6858 13.6957C17.5651 13.9692 17.5291 14.2726 17.5824 14.5668C17.6357 14.861 17.776 15.1324 17.985 15.3461L18.0394 15.4005C18.2081 15.569 18.3418 15.769 18.4331 15.9892C18.5244 16.2094 18.5714 16.4454 18.5714 16.6837C18.5714 16.9221 18.5244 17.1581 18.4331 17.3782C18.3418 17.5984 18.2081 17.7985 18.0394 17.9669C17.871 18.1355 17.671 18.2693 17.4508 18.3606C17.2306 18.4518 16.9946 18.4988 16.7563 18.4988C16.5179 18.4988 16.2819 18.4518 16.0617 18.3606C15.8416 18.2693 15.6415 18.1355 15.4731 17.9669L15.4187 17.9125C15.205 17.7034 14.9335 17.5632 14.6393 17.5098C14.3452 17.4565 14.0418 17.4925 13.7682 17.6132C13.5 17.7282 13.2713 17.9191 13.1102 18.1623C12.949 18.4056 12.8626 18.6907 12.8614 18.9826V19.1367C12.8614 19.6177 12.6703 20.079 12.3302 20.4192C11.9901 20.7593 11.5288 20.9504 11.0477 20.9504C10.5667 20.9504 10.1054 20.7593 9.76528 20.4192C9.42515 20.079 9.23407 19.6177 9.23407 19.1367V19.0551C9.22705 18.7549 9.12989 18.4638 8.95522 18.2196C8.78056 17.9754 8.53647 17.7894 8.25468 17.6858C7.98117 17.5651 7.67776 17.5291 7.38359 17.5824C7.08942 17.6357 6.81797 17.776 6.60424 17.985L6.54983 18.0394C6.38139 18.2081 6.18137 18.3418 5.96119 18.4331C5.74101 18.5244 5.50501 18.5714 5.26666 18.5714C5.02832 18.5714 4.79231 18.5244 4.57213 18.4331C4.35196 18.3418 4.15193 18.2081 3.98349 18.0394C3.81486 17.871 3.68109 17.671 3.58981 17.4508C3.49854 17.2306 3.45156 16.9946 3.45156 16.7563C3.45156 16.5179 3.49854 16.2819 3.58981 16.0617C3.68109 15.8416 3.81486 15.6415 3.98349 15.4731L4.0379 15.4187C4.24696 15.205 4.3872 14.9335 4.44054 14.6393C4.49388 14.3452 4.45787 14.0418 4.33715 13.7682C4.2222 13.5 4.03133 13.2713 3.78803 13.1102C3.54474 12.949 3.25964 12.8626 2.96783 12.8614H2.81367C2.33266 12.8614 1.87134 12.6703 1.53121 12.3302C1.19108 11.9901 1 11.5288 1 11.0477C1 10.5667 1.19108 10.1054 1.53121 9.76528C1.87134 9.42515 2.33266 9.23407 2.81367 9.23407H2.89529C3.19544 9.22705 3.48655 9.12989 3.73075 8.95522C3.97496 8.78056 4.16097 8.53647 4.26461 8.25468C4.38532 7.98117 4.42133 7.67776 4.36799 7.38359C4.31465 7.08942 4.17441 6.81797 3.96535 6.60424L3.91094 6.54983C3.74231 6.38139 3.60854 6.18137 3.51727 5.96119C3.426 5.74101 3.37902 5.50501 3.37902 5.26666C3.37902 5.02832 3.426 4.79231 3.51727 4.57213C3.60854 4.35196 3.74231 4.15193 3.91094 3.98349C4.07938 3.81486 4.27941 3.68109 4.49959 3.58981C4.71976 3.49854 4.95577 3.45156 5.19411 3.45156C5.43246 3.45156 5.66847 3.49854 5.88864 3.58981C6.10882 3.68109 6.30885 3.81486 6.47729 3.98349L6.5317 4.0379C6.74542 4.24696 7.01687 4.3872 7.31104 4.44054C7.60521 4.49388 7.90862 4.45787 8.18214 4.33715H8.25468C8.5229 4.2222 8.75165 4.03133 8.91277 3.78803C9.07389 3.54474 9.16036 3.25964 9.16152 2.96783V2.81367C9.16152 2.33266 9.3526 1.87134 9.69273 1.53121C10.0329 1.19108 10.4942 1 10.9752 1C11.4562 1 11.9175 1.19108 12.2577 1.53121C12.5978 1.87134 12.7889 2.33266 12.7889 2.81367V2.89529C12.79 3.18709 12.8765 3.47219 13.0376 3.71549C13.1987 3.95878 13.4275 4.14966 13.6957 4.26461C13.9692 4.38532 14.2726 4.42133 14.5668 4.36799C14.861 4.31465 15.1324 4.17441 15.3461 3.96535L15.4005 3.91094C15.569 3.74231 15.769 3.60854 15.9892 3.51727C16.2094 3.426 16.4454 3.37902 16.6837 3.37902C16.9221 3.37902 17.1581 3.426 17.3782 3.51727C17.5984 3.60854 17.7985 3.74231 17.9669 3.91094C18.1355 4.07938 18.2693 4.27941 18.3606 4.49959C18.4518 4.71976 18.4988 4.95577 18.4988 5.19411C18.4988 5.43246 18.4518 5.66847 18.3606 5.88864C18.2693 6.10882 18.1355 6.30885 17.9669 6.47729L17.9125 6.5317C17.7034 6.74542 17.5632 7.01687 17.5098 7.31104C17.4565 7.60521 17.4925 7.90862 17.6132 8.18214V8.25468C17.7282 8.5229 17.9191 8.75165 18.1623 8.91277C18.4056 9.07389 18.6907 9.16036 18.9826 9.16152H19.1367C19.6177 9.16152 20.079 9.3526 20.4192 9.69273C20.7593 10.0329 20.9504 10.4942 20.9504 10.9752C20.9504 11.4562 20.7593 11.9175 20.4192 12.2577C20.079 12.5978 19.6177 12.7889 19.1367 12.7889H19.0551C18.7633 12.79 18.4782 12.8765 18.2349 13.0376C17.9916 13.1987 17.8007 13.4275 17.6858 13.6957Z" stroke="black" stroke-width="1.81367" stroke-linecap="round" stroke-linejoin="round"/>
</svg>
