<svg width="21" height="23" viewBox="0 0 21 23" fill="none" xmlns="http://www.w3.org/2000/svg">
<path d="M16.2525 7.70101C16.2525 6.18901 15.6519 4.73894 14.5827 3.66979C13.5136 2.60064 12.0635 2 10.5515 2C9.03952 2 7.58944 2.60064 6.5203 3.66979C5.45115 4.73894 4.85051 6.18901 4.85051 7.70101C4.85051 14.3522 2 16.2525 2 16.2525H19.103C19.103 16.2525 16.2525 14.3522 16.2525 7.70101Z" stroke="black" stroke-width="2.67568" stroke-linecap="round" stroke-linejoin="round"/>
<path d="M12.1954 20.0532C12.0283 20.3412 11.7885 20.5802 11.5001 20.7464C11.2116 20.9126 10.8845 21 10.5516 21C10.2186 21 9.89157 20.9126 9.60308 20.7464C9.3146 20.5802 9.07483 20.3412 8.90778 20.0532" stroke="black" stroke-width="2.67568" stroke-linecap="round" stroke-linejoin="round"/>
</svg>
