<svg width="22" height="22" viewBox="0 0 22 22" fill="none" xmlns="http://www.w3.org/2000/svg">
<path d="M11 20C15.9706 20 20 15.9706 20 11C20 6.02944 15.9706 2 11 2C6.02944 2 2 6.02944 2 11C2 15.9706 6.02944 20 11 20Z" stroke="black" stroke-width="2.17271" stroke-linecap="round" stroke-linejoin="round"/>
<path d="M8.38086 8.3C8.59245 7.6985 9.0101 7.1913 9.55982 6.86822C10.1095 6.54514 10.7559 6.42704 11.3843 6.53484C12.0128 6.64264 12.5828 6.96937 12.9934 7.45718C13.4041 7.94498 13.6288 8.56237 13.6279 9.2C13.6279 11 10.9279 11.9 10.9279 11.9" stroke="black" stroke-width="2.17271" stroke-linecap="round" stroke-linejoin="round"/>
<path d="M11 15.5H11.0087" stroke="black" stroke-width="2.17271" stroke-linecap="round" stroke-linejoin="round"/>
</svg>
