<svg width="20" height="20" viewBox="0 0 20 20" fill="none" xmlns="http://www.w3.org/2000/svg">
<g clip-path="url(#clip0_1_1540)">
<path d="M6.66675 15.8333V17.5" stroke="#0A4CCC" stroke-width="2" stroke-linecap="round" stroke-linejoin="round"/>
<path d="M6.66675 10.8333V12.5" stroke="#0A4CCC" stroke-width="2" stroke-linecap="round" stroke-linejoin="round"/>
<path d="M13.3333 15.8333V17.5" stroke="#0A4CCC" stroke-width="2" stroke-linecap="round" stroke-linejoin="round"/>
<path d="M13.3333 10.8333V12.5" stroke="#0A4CCC" stroke-width="2" stroke-linecap="round" stroke-linejoin="round"/>
<path d="M10 17.5V19.1667" stroke="#0A4CCC" stroke-width="2" stroke-linecap="round" stroke-linejoin="round"/>
<path d="M10 12.5V14.1667" stroke="#0A4CCC" stroke-width="2" stroke-linecap="round" stroke-linejoin="round"/>
<path d="M16.6666 13.8167C17.5427 13.433 18.26 12.7597 18.6984 11.9097C19.1367 11.0596 19.2692 10.0847 19.0738 9.14853C18.8783 8.21235 18.3668 7.37189 17.625 6.76824C16.8832 6.16459 15.9563 5.8345 14.9999 5.83338H13.9499C13.6858 4.81048 13.1823 3.865 12.481 3.07488C11.7798 2.28476 10.9007 1.67261 9.91642 1.2889C8.93211 0.905185 7.8707 0.760893 6.81968 0.867916C5.76866 0.974938 4.75812 1.33021 3.87136 1.90445C2.9846 2.47869 2.247 3.25545 1.71937 4.17071C1.19173 5.08597 0.889173 6.11352 0.836623 7.16867C0.784072 8.22382 0.983037 9.27635 1.41712 10.2395C1.8512 11.2027 2.50796 12.0489 3.33328 12.7084" stroke="#0A4CCC" stroke-width="2" stroke-linecap="round" stroke-linejoin="round"/>
</g>
<defs>
<clipPath id="clip0_1_1540">
<rect width="20" height="20" fill="white"/>
</clipPath>
</defs>
</svg>
