<svg width="20" height="20" viewBox="0 0 20 20" fill="none" xmlns="http://www.w3.org/2000/svg">
<g clip-path="url(#clip0_32_2127)">
<path d="M6.6665 15.8333V17.5" stroke="#0A4CCC" stroke-width="2" stroke-linecap="round" stroke-linejoin="round"/>
<path d="M6.6665 10.8333V12.5" stroke="#0A4CCC" stroke-width="2" stroke-linecap="round" stroke-linejoin="round"/>
<path d="M13.3335 15.8333V17.5" stroke="#0A4CCC" stroke-width="2" stroke-linecap="round" stroke-linejoin="round"/>
<path d="M13.3335 10.8333V12.5" stroke="#0A4CCC" stroke-width="2" stroke-linecap="round" stroke-linejoin="round"/>
<path d="M10 17.5V19.1667" stroke="#0A4CCC" stroke-width="2" stroke-linecap="round" stroke-linejoin="round"/>
<path d="M10 12.5V14.1667" stroke="#0A4CCC" stroke-width="2" stroke-linecap="round" stroke-linejoin="round"/>
<path d="M16.6669 13.8167C17.5429 13.433 18.2603 12.7597 18.6986 11.9097C19.1369 11.0596 19.2695 10.0847 19.074 9.14853C18.8786 8.21235 18.367 7.37189 17.6252 6.76824C16.8834 6.16459 15.9566 5.8345 15.0002 5.83338H13.9502C13.686 4.81048 13.1826 3.865 12.4813 3.07488C11.78 2.28476 10.901 1.67261 9.91666 1.2889C8.93236 0.905185 7.87095 0.760893 6.81993 0.867916C5.76891 0.974938 4.75837 1.33021 3.8716 1.90445C2.98484 2.47869 2.24724 3.25545 1.71961 4.17071C1.19198 5.08597 0.889417 6.11352 0.836867 7.16867C0.784316 8.22382 0.983281 9.27635 1.41736 10.2395C1.85144 11.2027 2.50821 12.0489 3.33352 12.7084" stroke="#0A4CCC" stroke-width="2" stroke-linecap="round" stroke-linejoin="round"/>
</g>
<defs>
<clipPath id="clip0_32_2127">
<rect width="20" height="20" fill="white"/>
</clipPath>
</defs>
</svg>
