<svg width="44" height="72" viewBox="0 0 44 72" fill="none" xmlns="http://www.w3.org/2000/svg">
<path d="M16.7355 70.2645C14.5293 72.4707 10.9183 72.49 9.01638 70.0167C4.95518 64.7353 2.1454 58.57 0.83584 51.9864C-0.842617 43.5483 0.0188284 34.8019 3.31124 26.8533C6.60365 18.9047 12.1792 12.1109 19.3327 7.33107C24.914 3.60177 31.2603 1.2291 37.8665 0.366293C40.9602 -0.0377664 43.5 2.52927 43.5 5.64927C43.5 8.76927 40.9517 11.2482 37.8796 11.7928C33.5123 12.567 29.3313 14.2388 25.6098 16.7255C20.3143 20.2638 16.187 25.293 13.7497 31.177C11.3125 37.0611 10.6748 43.5357 11.9173 49.7822C12.7905 54.172 14.5647 58.3106 17.1054 61.9461C18.8926 64.5035 18.9417 68.0583 16.7355 70.2645Z" fill="#855CF8"/>
</svg>
