<svg width="75" height="87" viewBox="0 0 75 87" fill="none" xmlns="http://www.w3.org/2000/svg">
<path d="M72.681 67.5979C75.0892 69.5866 75.4517 73.1832 73.1676 75.3132C69.3417 78.8812 64.8917 81.7405 60.0238 83.7395C53.4064 86.4568 46.2209 87.5002 39.1039 86.7773C31.9869 86.0544 25.1581 83.5874 19.2222 79.5949C13.2864 75.6024 8.4268 70.2076 5.07391 63.8884C1.72102 57.5692 -0.0216672 50.5206 0.000203294 43.367C0.0220737 36.2134 1.80783 29.1756 5.1993 22.8771C8.59076 16.5785 13.4832 11.2135 19.4434 7.25736C23.8278 4.34715 28.6903 2.2654 33.7898 1.09761C36.8342 0.40044 39.6091 2.71702 39.9057 5.82607V5.82607C40.2023 8.93512 37.8986 11.6476 34.8892 12.4831C31.6349 13.3865 28.5316 14.7997 25.6981 16.6804C21.2876 19.608 17.6672 23.5781 15.1575 28.239C12.6478 32.9 11.3263 38.1079 11.3102 43.4016C11.294 48.6952 12.5836 53.9112 15.0647 58.5874C17.5458 63.2636 21.1419 67.2558 25.5345 70.2102C29.927 73.1647 34.9803 74.9902 40.2469 75.5252C45.5135 76.0602 50.8307 75.288 55.7276 73.2772C58.8735 71.9854 61.7836 70.2079 64.3562 68.0197C66.7352 65.9961 70.2729 65.6093 72.681 67.5979V67.5979Z" fill="#532379"/>
</svg>
