<svg width="30" height="30" viewBox="0 0 30 30" fill="none" xmlns="http://www.w3.org/2000/svg">
<g clip-path="url(#clip0_32_1304)">
<path d="M14.9998 29.7C23.1184 29.7 29.6998 23.1186 29.6998 15C29.6998 6.88146 23.1184 0.300049 14.9998 0.300049C6.88122 0.300049 0.299805 6.88146 0.299805 15C0.299805 23.1186 6.88122 29.7 14.9998 29.7Z" fill="#22B74B"/>
<g filter="url(#filter0_d_32_1304)">
<path d="M22.9199 19.71C22.9199 21.72 20.6999 24.63 18.4199 24.63C16.9199 24.6 15.8099 23.16 15.4199 22.59C15.2399 22.86 13.6799 24.9 11.8199 24.9C9.95987 24.9 7.91987 23.04 7.31987 20.28C7.05617 19.1081 7.01546 17.897 7.19987 16.71C8.72987 18.51 10.5899 19.74 11.1299 19.35C11.1299 19.35 11.4599 19.26 11.2499 18.69C10.7699 17.37 8.63987 16.59 7.31987 16.05C7.57548 14.7931 7.98874 13.5734 8.54987 12.42C9.68987 13.77 11.0099 14.67 11.4899 14.4C11.4899 14.4 11.7899 14.34 11.6399 13.86C11.3699 12.9 10.0199 12.21 8.90987 11.7C9.34956 10.816 9.85079 9.96386 10.4099 9.15002C11.1599 10.23 11.8799 10.92 12.1499 10.71C12.4199 10.5 12.3299 10.68 12.2099 10.2C12.0899 9.72002 11.4899 8.91002 10.9199 8.43002C11.8549 7.11981 12.8562 5.85817 13.9199 4.65002C15.1212 5.68564 16.2443 6.8087 17.2799 8.01002C16.7399 8.64002 16.2299 9.39002 16.1999 10.2C16.1699 11.01 16.3799 10.68 16.3799 10.68C16.3799 10.68 17.3099 9.93002 17.8199 8.64002C18.4499 9.39002 19.0799 10.2 19.6799 11.07C18.7199 11.79 17.5499 12.69 17.4899 13.65C17.4299 14.61 17.7599 14.16 17.7599 14.16C19.0499 12.9 19.3199 13.29 20.1599 11.82C20.8492 12.8743 21.4417 13.9888 21.9299 15.15C20.7299 15.93 19.0499 17.04 18.8699 18.33C18.7799 18.96 19.1099 18.96 19.1099 18.96C19.6799 19.23 21.1199 17.85 22.2299 15.96C22.6639 17.1637 22.897 18.4306 22.9199 19.71Z" fill="white"/>
<path d="M22.9199 19.71C22.9199 21.72 20.6999 24.63 18.4199 24.63C16.9199 24.6 15.8099 23.16 15.4199 22.59C15.2399 22.86 13.6799 24.9 11.8199 24.9C9.95987 24.9 7.91987 23.04 7.31987 20.28C7.05617 19.1081 7.01546 17.897 7.19987 16.71C8.72987 18.51 10.5899 19.74 11.1299 19.35C11.1299 19.35 11.4599 19.26 11.2499 18.69C10.7699 17.37 8.63987 16.59 7.31987 16.05C7.57548 14.7931 7.98874 13.5734 8.54987 12.42C9.68987 13.77 11.0099 14.67 11.4899 14.4C11.4899 14.4 11.7899 14.34 11.6399 13.86C11.3699 12.9 10.0199 12.21 8.90987 11.7C9.34956 10.816 9.85079 9.96386 10.4099 9.15002C11.1599 10.23 11.8799 10.92 12.1499 10.71C12.4199 10.5 12.3299 10.68 12.2099 10.2C12.0899 9.72002 11.4899 8.91002 10.9199 8.43002C11.8549 7.11981 12.8562 5.85817 13.9199 4.65002C15.1212 5.68564 16.2443 6.8087 17.2799 8.01002C16.7399 8.64002 16.2299 9.39002 16.1999 10.2C16.1699 11.01 16.3799 10.68 16.3799 10.68C16.3799 10.68 17.3099 9.93002 17.8199 8.64002C18.4499 9.39002 19.0799 10.2 19.6799 11.07C18.7199 11.79 17.5499 12.69 17.4899 13.65C17.4299 14.61 17.7599 14.16 17.7599 14.16C19.0499 12.9 19.3199 13.29 20.1599 11.82C20.8492 12.8743 21.4417 13.9888 21.9299 15.15C20.7299 15.93 19.0499 17.04 18.8699 18.33C18.7799 18.96 19.1099 18.96 19.1099 18.96C19.6799 19.23 21.1199 17.85 22.2299 15.96C22.6639 17.1637 22.897 18.4306 22.9199 19.71Z" stroke="#22B74B" stroke-width="2" stroke-linecap="round" stroke-linejoin="round"/>
</g>
<path d="M15.4199 22.59C15.9299 17.4 14.6999 8.10002 13.9199 4.65002L15.4199 22.59Z" fill="white"/>
<path d="M15.4199 22.59C15.9299 17.4 14.6999 8.10002 13.9199 4.65002" stroke="#22B74B" stroke-width="2" stroke-miterlimit="10"/>
</g>
<defs>
<filter id="filter0_d_32_1304" x="2.08643" y="3.65002" width="25.8335" height="30.25" filterUnits="userSpaceOnUse" color-interpolation-filters="sRGB">
<feFlood flood-opacity="0" result="BackgroundImageFix"/>
<feColorMatrix in="SourceAlpha" type="matrix" values="0 0 0 0 0 0 0 0 0 0 0 0 0 0 0 0 0 0 127 0" result="hardAlpha"/>
<feOffset dy="4"/>
<feGaussianBlur stdDeviation="2"/>
<feComposite in2="hardAlpha" operator="out"/>
<feColorMatrix type="matrix" values="0 0 0 0 0 0 0 0 0 0 0 0 0 0 0 0 0 0 0.25 0"/>
<feBlend mode="normal" in2="BackgroundImageFix" result="effect1_dropShadow_32_1304"/>
<feBlend mode="normal" in="SourceGraphic" in2="effect1_dropShadow_32_1304" result="shape"/>
</filter>
<clipPath id="clip0_32_1304">
<rect width="30" height="30" fill="white"/>
</clipPath>
</defs>
</svg>
