<svg width="30" height="30" viewBox="0 0 30 30" fill="none" xmlns="http://www.w3.org/2000/svg">
<g clip-path="url(#clip0_1_370)">
<path d="M15 29.7C23.1186 29.7 29.7 23.1186 29.7 15C29.7 6.88146 23.1186 0.300049 15 0.300049C6.88146 0.300049 0.300049 6.88146 0.300049 15C0.300049 23.1186 6.88146 29.7 15 29.7Z" fill="#22B74B"/>
<g filter="url(#filter0_d_1_370)">
<path d="M22.9201 19.71C22.9201 21.72 20.7001 24.63 18.4201 24.63C16.9201 24.6 15.8101 23.16 15.4201 22.59C15.2401 22.86 13.6801 24.9 11.8201 24.9C9.96011 24.9 7.92011 23.04 7.32011 20.28C7.05641 19.1081 7.0157 17.897 7.20011 16.71C8.73011 18.51 10.5901 19.74 11.1301 19.35C11.1301 19.35 11.4601 19.26 11.2501 18.69C10.7701 17.37 8.64011 16.59 7.32011 16.05C7.57572 14.7931 7.98899 13.5734 8.55011 12.42C9.69011 13.77 11.0101 14.67 11.4901 14.4C11.4901 14.4 11.7901 14.34 11.6401 13.86C11.3701 12.9 10.0201 12.21 8.91011 11.7C9.3498 10.816 9.85104 9.96386 10.4101 9.15002C11.1601 10.23 11.8801 10.92 12.1501 10.71C12.4201 10.5 12.3301 10.68 12.2101 10.2C12.0901 9.72002 11.4901 8.91002 10.9201 8.43002C11.8552 7.11981 12.8565 5.85817 13.9201 4.65002C15.1214 5.68564 16.2445 6.8087 17.2801 8.01002C16.7401 8.64002 16.2301 9.39002 16.2001 10.2C16.1701 11.01 16.3801 10.68 16.3801 10.68C16.3801 10.68 17.3101 9.93002 17.8201 8.64002C18.4501 9.39002 19.0801 10.2 19.6801 11.07C18.7201 11.79 17.5501 12.69 17.4901 13.65C17.4301 14.61 17.7601 14.16 17.7601 14.16C19.0501 12.9 19.3201 13.29 20.1601 11.82C20.8495 12.8743 21.4419 13.9888 21.9301 15.15C20.7301 15.93 19.0501 17.04 18.8701 18.33C18.7801 18.96 19.1101 18.96 19.1101 18.96C19.6801 19.23 21.1201 17.85 22.2301 15.96C22.6641 17.1637 22.8973 18.4306 22.9201 19.71Z" fill="white"/>
<path d="M22.9201 19.71C22.9201 21.72 20.7001 24.63 18.4201 24.63C16.9201 24.6 15.8101 23.16 15.4201 22.59C15.2401 22.86 13.6801 24.9 11.8201 24.9C9.96011 24.9 7.92011 23.04 7.32011 20.28C7.05641 19.1081 7.0157 17.897 7.20011 16.71C8.73011 18.51 10.5901 19.74 11.1301 19.35C11.1301 19.35 11.4601 19.26 11.2501 18.69C10.7701 17.37 8.64011 16.59 7.32011 16.05C7.57572 14.7931 7.98899 13.5734 8.55011 12.42C9.69011 13.77 11.0101 14.67 11.4901 14.4C11.4901 14.4 11.7901 14.34 11.6401 13.86C11.3701 12.9 10.0201 12.21 8.91011 11.7C9.3498 10.816 9.85104 9.96386 10.4101 9.15002C11.1601 10.23 11.8801 10.92 12.1501 10.71C12.4201 10.5 12.3301 10.68 12.2101 10.2C12.0901 9.72002 11.4901 8.91002 10.9201 8.43002C11.8552 7.11981 12.8565 5.85817 13.9201 4.65002C15.1214 5.68564 16.2445 6.8087 17.2801 8.01002C16.7401 8.64002 16.2301 9.39002 16.2001 10.2C16.1701 11.01 16.3801 10.68 16.3801 10.68C16.3801 10.68 17.3101 9.93002 17.8201 8.64002C18.4501 9.39002 19.0801 10.2 19.6801 11.07C18.7201 11.79 17.5501 12.69 17.4901 13.65C17.4301 14.61 17.7601 14.16 17.7601 14.16C19.0501 12.9 19.3201 13.29 20.1601 11.82C20.8495 12.8743 21.4419 13.9888 21.9301 15.15C20.7301 15.93 19.0501 17.04 18.8701 18.33C18.7801 18.96 19.1101 18.96 19.1101 18.96C19.6801 19.23 21.1201 17.85 22.2301 15.96C22.6641 17.1637 22.8973 18.4306 22.9201 19.71Z" stroke="#22B74B" stroke-width="2" stroke-linecap="round" stroke-linejoin="round"/>
</g>
<path d="M15.4202 22.59C15.9302 17.4 14.7002 8.10002 13.9202 4.65002Z" fill="white"/>
<path d="M15.4202 22.59C15.9302 17.4 14.7002 8.10002 13.9202 4.65002" stroke="#22B74B" stroke-width="2" stroke-miterlimit="10"/>
</g>
<defs>
<filter id="filter0_d_1_370" x="2.08667" y="3.65002" width="25.8335" height="30.25" filterUnits="userSpaceOnUse" color-interpolation-filters="sRGB">
<feFlood flood-opacity="0" result="BackgroundImageFix"/>
<feColorMatrix in="SourceAlpha" type="matrix" values="0 0 0 0 0 0 0 0 0 0 0 0 0 0 0 0 0 0 127 0" result="hardAlpha"/>
<feOffset dy="4"/>
<feGaussianBlur stdDeviation="2"/>
<feComposite in2="hardAlpha" operator="out"/>
<feColorMatrix type="matrix" values="0 0 0 0 0 0 0 0 0 0 0 0 0 0 0 0 0 0 0.25 0"/>
<feBlend mode="normal" in2="BackgroundImageFix" result="effect1_dropShadow_1_370"/>
<feBlend mode="normal" in="SourceGraphic" in2="effect1_dropShadow_1_370" result="shape"/>
</filter>
<clipPath id="clip0_1_370">
<rect width="30" height="30" fill="white"/>
</clipPath>
</defs>
</svg>
