<svg width="30" height="30" viewBox="0 0 30 30" fill="none" xmlns="http://www.w3.org/2000/svg">
<g clip-path="url(#clip0_1_991)">
<path d="M15 29.7C23.1186 29.7 29.7 23.1186 29.7 15C29.7 6.88146 23.1186 0.300049 15 0.300049C6.88146 0.300049 0.300049 6.88146 0.300049 15C0.300049 23.1186 6.88146 29.7 15 29.7Z" fill="#22B74B"/>
<g filter="url(#filter0_d_1_991)">
<path d="M22.92 19.71C22.92 21.72 20.7 24.63 18.42 24.63C16.92 24.6 15.81 23.16 15.42 22.59C15.24 22.86 13.68 24.9 11.82 24.9C9.95999 24.9 7.91999 23.04 7.31999 20.28C7.05629 19.1081 7.01558 17.897 7.19999 16.71C8.72999 18.51 10.59 19.74 11.13 19.35C11.13 19.35 11.46 19.26 11.25 18.69C10.77 17.37 8.63999 16.59 7.31999 16.05C7.5756 14.7931 7.98886 13.5734 8.54999 12.42C9.68999 13.77 11.01 14.67 11.49 14.4C11.49 14.4 11.79 14.34 11.64 13.86C11.37 12.9 10.02 12.21 8.90999 11.7C9.34968 10.816 9.85091 9.96386 10.41 9.15002C11.16 10.23 11.88 10.92 12.15 10.71C12.42 10.5 12.33 10.68 12.21 10.2C12.09 9.72002 11.49 8.91002 10.92 8.43002C11.855 7.11981 12.8563 5.85817 13.92 4.65002C15.1213 5.68564 16.2444 6.8087 17.28 8.01002C16.74 8.64002 16.23 9.39002 16.2 10.2C16.17 11.01 16.38 10.68 16.38 10.68C16.38 10.68 17.31 9.93002 17.82 8.64002C18.45 9.39002 19.08 10.2 19.68 11.07C18.72 11.79 17.55 12.69 17.49 13.65C17.43 14.61 17.76 14.16 17.76 14.16C19.05 12.9 19.32 13.29 20.16 11.82C20.8494 12.8743 21.4418 13.9888 21.93 15.15C20.73 15.93 19.05 17.04 18.87 18.33C18.78 18.96 19.11 18.96 19.11 18.96C19.68 19.23 21.12 17.85 22.23 15.96C22.664 17.1637 22.8971 18.4306 22.92 19.71Z" fill="white"/>
<path d="M22.92 19.71C22.92 21.72 20.7 24.63 18.42 24.63C16.92 24.6 15.81 23.16 15.42 22.59C15.24 22.86 13.68 24.9 11.82 24.9C9.95999 24.9 7.91999 23.04 7.31999 20.28C7.05629 19.1081 7.01558 17.897 7.19999 16.71C8.72999 18.51 10.59 19.74 11.13 19.35C11.13 19.35 11.46 19.26 11.25 18.69C10.77 17.37 8.63999 16.59 7.31999 16.05C7.5756 14.7931 7.98886 13.5734 8.54999 12.42C9.68999 13.77 11.01 14.67 11.49 14.4C11.49 14.4 11.79 14.34 11.64 13.86C11.37 12.9 10.02 12.21 8.90999 11.7C9.34968 10.816 9.85091 9.96386 10.41 9.15002C11.16 10.23 11.88 10.92 12.15 10.71C12.42 10.5 12.33 10.68 12.21 10.2C12.09 9.72002 11.49 8.91002 10.92 8.43002C11.855 7.11981 12.8563 5.85817 13.92 4.65002C15.1213 5.68564 16.2444 6.8087 17.28 8.01002C16.74 8.64002 16.23 9.39002 16.2 10.2C16.17 11.01 16.38 10.68 16.38 10.68C16.38 10.68 17.31 9.93002 17.82 8.64002C18.45 9.39002 19.08 10.2 19.68 11.07C18.72 11.79 17.55 12.69 17.49 13.65C17.43 14.61 17.76 14.16 17.76 14.16C19.05 12.9 19.32 13.29 20.16 11.82C20.8494 12.8743 21.4418 13.9888 21.93 15.15C20.73 15.93 19.05 17.04 18.87 18.33C18.78 18.96 19.11 18.96 19.11 18.96C19.68 19.23 21.12 17.85 22.23 15.96C22.664 17.1637 22.8971 18.4306 22.92 19.71Z" stroke="#22B74B" stroke-width="2" stroke-linecap="round" stroke-linejoin="round"/>
</g>
<path d="M15.42 22.59C15.93 17.4 14.7 8.10002 13.92 4.65002Z" fill="white"/>
<path d="M15.42 22.59C15.93 17.4 14.7 8.10002 13.92 4.65002" stroke="#22B74B" stroke-width="2" stroke-miterlimit="10"/>
</g>
<defs>
<filter id="filter0_d_1_991" x="2.08655" y="3.65002" width="25.8335" height="30.25" filterUnits="userSpaceOnUse" color-interpolation-filters="sRGB">
<feFlood flood-opacity="0" result="BackgroundImageFix"/>
<feColorMatrix in="SourceAlpha" type="matrix" values="0 0 0 0 0 0 0 0 0 0 0 0 0 0 0 0 0 0 127 0" result="hardAlpha"/>
<feOffset dy="4"/>
<feGaussianBlur stdDeviation="2"/>
<feComposite in2="hardAlpha" operator="out"/>
<feColorMatrix type="matrix" values="0 0 0 0 0 0 0 0 0 0 0 0 0 0 0 0 0 0 0.25 0"/>
<feBlend mode="normal" in2="BackgroundImageFix" result="effect1_dropShadow_1_991"/>
<feBlend mode="normal" in="SourceGraphic" in2="effect1_dropShadow_1_991" result="shape"/>
</filter>
<clipPath id="clip0_1_991">
<rect width="30" height="30" fill="white"/>
</clipPath>
</defs>
</svg>
