<svg width="30" height="30" viewBox="0 0 30 30" fill="none" xmlns="http://www.w3.org/2000/svg">
<g clip-path="url(#clip0_1_842)">
<path d="M15 29.7C23.1186 29.7 29.7 23.1186 29.7 15C29.7 6.88146 23.1186 0.300049 15 0.300049C6.88141 0.300049 0.299999 6.88146 0.299999 15C0.299999 23.1186 6.88141 29.7 15 29.7Z" fill="#22B74B"/>
<g filter="url(#filter0_d_1_842)">
<path d="M22.92 19.7101C22.92 21.7201 20.7 24.6301 18.42 24.6301C16.92 24.6001 15.81 23.1601 15.42 22.5901C15.24 22.8601 13.68 24.9001 11.82 24.9001C9.96 24.9001 7.92 23.0401 7.32 20.2801C7.0563 19.1082 7.01559 17.8971 7.2 16.7101C8.73 18.5101 10.59 19.7401 11.13 19.3501C11.13 19.3501 11.46 19.2601 11.25 18.6901C10.77 17.3701 8.64 16.5901 7.32 16.0501C7.57561 14.7932 7.98888 13.5736 8.55 12.4201C9.69 13.7701 11.01 14.6701 11.49 14.4001C11.49 14.4001 11.79 14.3401 11.64 13.8601C11.37 12.9001 10.02 12.2101 8.91 11.7001C9.34969 10.8161 9.85093 9.96399 10.41 9.15015C11.16 10.2301 11.88 10.9201 12.15 10.7101C12.42 10.5001 12.33 10.6801 12.21 10.2001C12.09 9.72015 11.49 8.91015 10.92 8.43015C11.855 7.11993 12.8563 5.85829 13.92 4.65015C15.1213 5.68576 16.2444 6.80882 17.28 8.01015C16.74 8.64015 16.23 9.39015 16.2 10.2001C16.17 11.0101 16.38 10.6801 16.38 10.6801C16.38 10.6801 17.31 9.93015 17.82 8.64015C18.45 9.39015 19.08 10.2001 19.68 11.0701C18.72 11.7901 17.55 12.6901 17.49 13.6501C17.43 14.6101 17.76 14.1601 17.76 14.1601C19.05 12.9001 19.32 13.2901 20.16 11.8201C20.8494 12.8744 21.4418 13.989 21.93 15.1501C20.73 15.9301 19.05 17.0401 18.87 18.3301C18.78 18.9601 19.11 18.9601 19.11 18.9601C19.68 19.2301 21.12 17.8501 22.23 15.9601C22.664 17.1639 22.8971 18.4308 22.92 19.7101Z" fill="white"/>
<path d="M22.92 19.7101C22.92 21.7201 20.7 24.6301 18.42 24.6301C16.92 24.6001 15.81 23.1601 15.42 22.5901C15.24 22.8601 13.68 24.9001 11.82 24.9001C9.96 24.9001 7.92 23.0401 7.32 20.2801C7.0563 19.1082 7.01559 17.8971 7.2 16.7101C8.73 18.5101 10.59 19.7401 11.13 19.3501C11.13 19.3501 11.46 19.2601 11.25 18.6901C10.77 17.3701 8.64 16.5901 7.32 16.0501C7.57561 14.7932 7.98888 13.5736 8.55 12.4201C9.69 13.7701 11.01 14.6701 11.49 14.4001C11.49 14.4001 11.79 14.3401 11.64 13.8601C11.37 12.9001 10.02 12.2101 8.91 11.7001C9.34969 10.8161 9.85093 9.96399 10.41 9.15015C11.16 10.2301 11.88 10.9201 12.15 10.7101C12.42 10.5001 12.33 10.6801 12.21 10.2001C12.09 9.72015 11.49 8.91015 10.92 8.43015C11.855 7.11993 12.8563 5.85829 13.92 4.65015C15.1213 5.68576 16.2444 6.80882 17.28 8.01015C16.74 8.64015 16.23 9.39015 16.2 10.2001C16.17 11.0101 16.38 10.6801 16.38 10.6801C16.38 10.6801 17.31 9.93015 17.82 8.64015C18.45 9.39015 19.08 10.2001 19.68 11.0701C18.72 11.7901 17.55 12.6901 17.49 13.6501C17.43 14.6101 17.76 14.1601 17.76 14.1601C19.05 12.9001 19.32 13.2901 20.16 11.8201C20.8494 12.8744 21.4418 13.989 21.93 15.1501C20.73 15.9301 19.05 17.0401 18.87 18.3301C18.78 18.9601 19.11 18.9601 19.11 18.9601C19.68 19.2301 21.12 17.8501 22.23 15.9601C22.664 17.1639 22.8971 18.4308 22.92 19.7101Z" stroke="#22B74B" stroke-width="2" stroke-linecap="round" stroke-linejoin="round"/>
</g>
<path d="M15.42 22.5901C15.93 17.4001 14.7 8.10015 13.92 4.65015Z" fill="white"/>
<path d="M15.42 22.5901C15.93 17.4001 14.7 8.10015 13.92 4.65015" stroke="#22B74B" stroke-width="2" stroke-miterlimit="10"/>
</g>
<defs>
<filter id="filter0_d_1_842" x="2.08656" y="3.65015" width="25.8334" height="30.25" filterUnits="userSpaceOnUse" color-interpolation-filters="sRGB">
<feFlood flood-opacity="0" result="BackgroundImageFix"/>
<feColorMatrix in="SourceAlpha" type="matrix" values="0 0 0 0 0 0 0 0 0 0 0 0 0 0 0 0 0 0 127 0" result="hardAlpha"/>
<feOffset dy="4"/>
<feGaussianBlur stdDeviation="2"/>
<feComposite in2="hardAlpha" operator="out"/>
<feColorMatrix type="matrix" values="0 0 0 0 0 0 0 0 0 0 0 0 0 0 0 0 0 0 0.25 0"/>
<feBlend mode="normal" in2="BackgroundImageFix" result="effect1_dropShadow_1_842"/>
<feBlend mode="normal" in="SourceGraphic" in2="effect1_dropShadow_1_842" result="shape"/>
</filter>
<clipPath id="clip0_1_842">
<rect width="30" height="30" fill="white"/>
</clipPath>
</defs>
</svg>
