<svg width="460" height="116" viewBox="0 0 460 116" fill="none" xmlns="http://www.w3.org/2000/svg">
<path d="M1.21777 54.0754C1.21777 54.0754 10.6777 10.1538 16.9844 10.1538C23.291 10.1538 26.4443 51.7012 32.751 51.7012C39.0576 51.7012 42.2109 22.0245 48.5175 22.0245C54.8242 22.0245 57.9775 69.5073 64.2841 69.5073C70.5908 69.5073 73.7441 12.5279 80.0507 12.5279C86.3574 12.5279 89.5107 38.406 95.8173 58.8236C102.124 79.2412 105.277 114.616 111.584 114.616C117.891 114.616 121.044 48.14 127.35 48.14C133.657 48.14 136.81 102.745 143.117 102.745C149.424 102.745 152.577 1.8443 158.884 1.8443C165.19 1.8443 168.344 80.1909 174.65 83.7521C180.957 87.3133 184.11 85.1766 190.417 87.3133C196.723 89.45 199.877 94.4357 206.183 94.4357C212.49 94.4357 215.643 94.4357 221.95 84.9392C228.257 75.4426 231.41 41.0176 237.717 41.0176C244.023 41.0176 247.177 62.3848 253.483 62.3848C259.79 62.3848 262.943 29.1469 269.25 29.1469C275.556 29.1469 278.71 96.8099 285.016 96.8099C291.323 96.8099 294.476 14.9021 300.783 14.9021C307.09 14.9021 310.243 77.8167 316.55 77.8167C322.856 77.8167 326.01 65.4712 332.316 51.7012C338.623 37.9312 341.776 8.96672 348.083 8.96672C354.389 8.96672 357.543 15.1395 363.849 35.0822C370.156 55.025 373.309 108.681 379.616 108.681C385.923 108.681 389.076 97.9969 395.383 97.9969C401.689 97.9969 404.842 102.745 411.149 102.745C417.456 102.745 420.609 72.1188 426.916 58.8236C433.222 45.5285 436.376 36.2693 442.682 36.2693C448.989 36.2693 458.449 48.14 458.449 48.14" stroke="#602BF8" stroke-width="2"/>
</svg>
