<svg width="460" height="145" viewBox="0 0 460 145" fill="none" xmlns="http://www.w3.org/2000/svg">
<path d="M1.22168 83.0753C1.22168 83.0753 8.60183 71.5806 14.9097 71.5806C21.2175 71.5806 25.3857 24.529 31.6935 24.529C38.0014 24.529 42.2227 51.0244 48.5305 51.0244C54.8384 51.0244 57.9923 98.5072 64.3001 98.5072C70.608 98.5072 73.7619 41.5279 80.0698 41.5279C86.3776 41.5279 89.5315 67.406 95.8394 87.8236C102.147 108.241 105.301 143.616 111.609 143.616C117.917 143.616 121.071 77.14 127.379 77.14C133.686 77.14 136.84 131.745 143.148 131.745C149.456 131.745 152.746 1.16772 159.053 1.16772C165.361 1.16772 168.38 109.191 174.687 112.752C180.995 116.313 184.01 22.3923 190.318 24.529C196.625 26.6657 199.919 123.436 206.227 123.436C212.535 123.436 215.688 123.436 221.996 113.939C228.304 104.443 231.458 70.0175 237.766 70.0175C244.074 70.0175 245.88 18.9355 252.187 18.9355C258.495 18.9355 262.997 58.1468 269.305 58.1468C275.613 58.1468 278.767 125.81 285.075 125.81C291.383 125.81 294.537 43.902 300.844 43.902C307.152 43.902 310.306 106.817 316.614 106.817C322.922 106.817 326.179 80.7442 332.487 66.9742C338.795 53.2042 341.975 123.436 348.283 123.436C354.591 123.436 357.772 -1.0073 364.08 18.9355C370.388 38.8782 373.385 137.68 379.692 137.68C386 137.68 389.036 105.142 395.344 105.142C401.652 105.142 404.924 131.745 411.232 131.745C417.54 131.745 420.693 101.119 427.001 87.8236C433.309 74.5284 436.463 65.2693 442.771 65.2693C449.079 65.2693 458.859 31.4387 458.859 31.4387" stroke="#0C5B05" stroke-width="2"/>
</svg>
