<svg width="697" height="251" viewBox="0 0 697 251" fill="none" xmlns="http://www.w3.org/2000/svg">
<path d="M1.20361 169.986C1.20361 169.986 14.4164 226 24 226C33.5836 226 38.9164 73 48.5 73C58.0836 73 63.4971 127.971 73.0807 127.971C82.6643 127.971 87.4561 190.215 97.0397 190.215C106.623 190.215 110.916 41 120.5 41C130.084 41 135.374 149.445 144.958 176.21C154.541 202.975 159.333 249.346 168.917 249.346C178.5 249.346 183.416 142.5 193 142.5C202.584 142.5 206.416 222.893 216 222.893C225.584 222.893 230.416 227.5 240 227.5C249.584 227.5 255.169 204.22 264.753 208.888C274.337 213.556 279.416 66.199 289 69C298.584 71.801 303.087 222.893 312.671 222.893C322.255 222.893 326.916 58.9488 336.5 46.5C346.084 34.0513 351.005 152.869 360.589 152.869C370.173 152.869 374.965 180.878 384.548 180.878C394.132 180.878 398.924 137.308 408.507 137.308C418.091 137.308 422.883 226.005 432.466 226.005C442.05 226.005 446.416 92 456 92C465.584 92 470.801 201.107 480.384 201.107C489.968 201.107 494.76 184.924 504.343 166.873C513.927 148.823 517.916 1.5 527.5 1.5C537.084 1.5 529.5 1.49999 553 14.5C562.584 40.6424 566.637 241.566 576.22 241.566C585.804 241.566 590.416 38 600 38C609.584 38 614.555 233.785 624.138 233.785C633.722 233.785 638.514 193.638 648.097 176.21C657.681 158.782 662.473 146.644 672.057 146.644C681.64 146.644 696.016 162.205 696.016 162.205" stroke="#602BF8" stroke-width="2"/>
</svg>
