<svg width="698" height="190" viewBox="0 0 698 190" fill="none" xmlns="http://www.w3.org/2000/svg">
<path d="M1.20361 108.986C1.20361 108.986 12.4164 93.9175 22 93.9175C31.5836 93.9175 37.9164 32.239 47.5 32.239C57.0836 32.239 63.4971 66.971 73.0807 66.971C82.6643 66.971 87.4561 129.215 97.0397 129.215C106.623 129.215 111.415 54.5223 120.999 54.5223C130.582 54.5223 135.374 88.4451 144.958 115.21C154.541 141.975 159.333 188.346 168.917 188.346C178.5 188.346 183.292 101.205 192.876 101.205C202.459 101.205 207.251 172.785 216.835 172.785C226.419 172.785 231.416 1.61536 241 1.61536C250.584 1.61536 255.169 143.22 264.753 147.888C274.337 152.556 278.916 29.438 288.5 32.239C298.084 35.0399 303.087 161.893 312.671 161.893C322.255 161.893 327.046 161.893 336.63 149.444C346.214 136.995 351.005 91.8685 360.589 91.8685C370.173 91.8685 372.916 24.9066 382.5 24.9066C392.084 24.9066 398.924 76.3076 408.507 76.3076C418.091 76.3076 422.883 165.005 432.466 165.005C442.05 165.005 446.842 57.6345 456.425 57.6345C466.009 57.6345 470.801 140.107 480.384 140.107C489.968 140.107 494.916 105.93 504.5 87.8791C514.084 69.8284 518.916 161.893 528.5 161.893C538.084 161.893 542.916 -1.23582 552.5 24.9066C562.084 51.0489 566.637 180.566 576.22 180.566C585.804 180.566 590.416 137.912 600 137.912C609.584 137.912 614.555 172.785 624.138 172.785C633.722 172.785 638.514 132.638 648.097 115.21C657.681 97.7817 662.473 85.6441 672.057 85.6441C681.64 85.6441 696.5 41.2967 696.5 41.2967" stroke="#0C5B05" stroke-width="2"/>
</svg>
