<svg width="3042" height="2443" viewBox="0 0 3042 2443" fill="none" xmlns="http://www.w3.org/2000/svg">
<g opacity="0.7">
<path opacity="0.8" d="M2592.24 453.07C2590.71 453.816 2589.67 455.312 2589.11 456.989L2538.54 446.091C2538.77 445.09 2538.83 444.061 2538.58 443.036C2537.8 440.163 2534.99 438.84 2532.32 440.184C2529.69 441.485 2528.15 444.929 2528.97 447.859C2529.01 448.073 2529.15 448.2 2529.25 448.37L2322.22 619.899C2320.97 618.301 2318.87 617.712 2316.88 618.748C2314.85 619.728 2313.56 621.913 2313.36 624.113L2180.95 641.422C2180.9 641.052 2180.96 640.594 2180.83 640.21C2180.05 637.336 2177.24 636.013 2174.62 637.314C2171.94 638.659 2170.45 642.059 2171.24 644.933C2171.35 645.417 2171.61 645.77 2171.83 646.168L2031.23 792.726C2029.99 791.442 2028.06 791.036 2026.23 791.943C2024 793.096 2022.66 795.638 2022.79 798.149L1829.42 861.216C1829.39 861.16 1829.44 861.116 1829.41 861.06C1828.62 858.186 1825.82 856.862 1823.14 858.207C1820.52 859.508 1818.98 862.951 1819.79 865.882C1820.09 866.863 1820.63 867.571 1821.25 868.134L1734.7 1010.46C1733.49 1009.81 1732.06 1009.74 1730.64 1010.4C1728.45 1011.51 1727.12 1014.05 1727.13 1016.49L1552.26 1067.57C1552.19 1067.45 1552.27 1067.31 1552.21 1067.19C1551.43 1064.32 1548.62 1063 1545.94 1064.34C1543.57 1065.53 1542.22 1068.32 1542.52 1071.02L1327.32 1164.5C1326.38 1161.91 1323.78 1160.67 1321.24 1161.99C1320.01 1162.57 1319.05 1163.67 1318.44 1164.98L1092.32 1085.67C1092.61 1084.63 1092.69 1083.5 1092.42 1082.42C1091.63 1079.54 1088.83 1078.22 1086.15 1079.56C1083.47 1080.91 1081.99 1084.31 1082.8 1087.24C1082.9 1087.57 1083.08 1087.75 1083.23 1088.03L874.973 1282.98C873.704 1281.64 871.75 1281.18 869.835 1282.07C867.158 1283.42 865.673 1286.82 866.457 1289.69C866.695 1290.56 867.18 1291.31 867.764 1291.82L728.651 1515.95C727.474 1515.35 726.044 1515.28 724.621 1515.94C721.998 1517.24 720.459 1520.68 721.273 1523.61C721.681 1525.08 722.572 1526.15 723.688 1526.64L641.136 1786.43C640.29 1786.29 639.398 1786.36 638.552 1786.8C635.929 1788.1 634.39 1791.54 635.204 1794.47C635.312 1794.96 635.581 1795.31 635.796 1795.71L456.103 1989.95C454.841 1988.77 453.034 1988.43 451.257 1989.3C448.58 1990.64 447.095 1994.04 447.91 1996.97C448.694 1999.85 451.501 2001.17 454.178 1999.82C455.462 1999.2 456.47 1998.06 457.101 1996.65L582.405 2040.61C582.097 2041.76 581.959 2042.93 582.266 2044.07C583.081 2047 585.857 2048.26 588.534 2046.92C590.311 2046.06 591.534 2044.17 591.911 2042.16L784.317 2036.71C784.317 2037.28 784.286 2037.79 784.424 2038.33C785.208 2041.2 788.015 2042.53 790.692 2041.18C793.315 2039.88 794.854 2036.44 794.039 2033.51C793.801 2032.64 793.347 2031.95 792.817 2031.4L917.348 1838.2C918.556 1838.85 920.017 1838.98 921.494 1838.28C923.925 1837.05 925.294 1834.15 924.91 1831.44L1141.69 1728.04C1142.66 1730.52 1145.2 1731.65 1147.69 1730.38C1149.38 1729.5 1150.52 1727.76 1150.96 1725.86L1375.93 1727.65C1375.93 1728.22 1375.93 1728.79 1376.1 1729.39C1376.88 1732.26 1379.69 1733.58 1382.37 1732.24C1384.99 1730.94 1386.53 1727.5 1385.75 1724.62C1385.54 1723.81 1385.12 1723.17 1384.67 1722.64L1450.69 1633.81C1451.91 1634.78 1453.6 1635.05 1455.24 1634.22C1457.32 1633.19 1458.6 1630.85 1458.74 1628.54L1653.42 1585.87C1653.45 1586.08 1653.44 1586.34 1653.48 1586.55C1654.26 1589.42 1657.07 1590.75 1659.75 1589.4C1662.37 1588.1 1663.91 1584.66 1663.09 1581.73C1662.85 1580.7 1662.22 1579.98 1661.52 1579.4L1789.01 1347.53C1790.13 1348.02 1791.44 1348.02 1792.78 1347.35C1794.72 1346.35 1796.02 1344.33 1796.3 1342.14L2004.33 1315.68C2004.38 1316.05 2004.34 1316.41 2004.39 1316.78C2005.2 1319.71 2007.98 1320.98 2010.65 1319.63C2013.28 1318.33 2014.82 1314.89 2014 1311.96C2013.66 1310.76 2012.98 1309.93 2012.11 1309.32L2092.18 1139.77C2093.24 1140.14 2094.47 1140.13 2095.7 1139.54C2098.32 1138.24 2099.86 1134.8 2099.04 1131.87C2098.81 1131 2098.38 1130.36 2097.85 1129.81L2235.32 920.631C2236.52 921.288 2238.02 921.47 2239.46 920.711C2242.08 919.41 2243.62 915.966 2242.81 913.036C2242.37 911.514 2241.39 910.426 2240.14 909.97L2261.55 838.227L2440.72 693C2441.95 694.699 2444.05 695.287 2446.1 694.207C2448.72 692.906 2450.26 689.463 2449.44 686.532C2449.21 685.664 2448.78 685.027 2448.25 684.477L2591.14 463.173C2592.35 463.83 2593.81 463.956 2595.2 463.24C2597.83 461.939 2599.36 458.495 2598.55 455.565C2597.73 453.048 2594.95 451.782 2592.24 453.07ZM456.879 1990.96L636.542 1796.66C637.011 1797.09 637.588 1797.44 638.211 1797.59L587.659 2035.88C586.959 2035.88 586.267 2036.03 585.613 2036.39C584.329 2037.02 583.267 2038.2 582.69 2039.57L457.386 1995.61C457.694 1994.46 457.832 1993.29 457.525 1992.15C457.364 1991.71 457.094 1991.36 456.879 1990.96ZM2096.19 1129.03C2095.51 1128.77 2094.75 1128.8 2094.03 1128.9L2074.75 992.948C2076.13 991.505 2076.75 989.371 2076.49 987.461L2193.74 935.747L2096.19 1129.03ZM1656.78 1579.07C1656.23 1579.35 1655.83 1579.76 1655.4 1580.1L1505.83 1413.42C1506.9 1411.83 1507.4 1409.88 1506.94 1408.04L1621.24 1342.32C1622.12 1344.22 1623.87 1345.17 1625.84 1344.81L1656.94 1578.94C1656.89 1578.99 1656.83 1579.03 1656.78 1579.07ZM1452.33 1623.85C1451.48 1624.28 1450.79 1625.01 1450.21 1625.8L1286.74 1512.42C1287.27 1511.26 1287.43 1509.98 1287.28 1508.71L1497.54 1413.11C1498.08 1414.54 1499.14 1415.49 1500.41 1415.84L1454.54 1623.36C1453.76 1623.34 1453.07 1623.49 1452.33 1623.85ZM588.79 2036.11L639.341 1797.82C640.041 1797.83 640.734 1797.68 641.418 1797.37C641.964 1797.09 642.449 1796.7 642.903 1796.25L719.304 1885.22C718.096 1886.85 717.503 1889.04 718.018 1890.99C718.157 1891.53 718.487 1891.99 718.733 1892.45L590.405 2037.09C589.905 2036.6 589.413 2036.26 588.79 2036.11ZM730.634 1522.74L891.02 1555.03C890.866 1555.89 890.827 1556.82 891.066 1557.69L778.175 1624.15C777.137 1621.81 774.684 1620.85 772.307 1622.04C772.199 1622.12 772.091 1622.21 771.984 1622.3L728.541 1525.74C729.479 1524.9 730.187 1523.92 730.634 1522.74ZM1088.87 1090.01L1147.31 1258.21C1145.2 1259.75 1144 1262.68 1144.72 1265.28C1144.75 1265.34 1144.78 1265.39 1144.84 1265.51L1039.97 1335.2C1039.35 1334.07 1038.51 1333.36 1037.4 1333.03L1087.08 1090.56C1087.61 1090.54 1088.27 1090.33 1088.87 1090.01ZM1318.23 1170.29C1318.39 1170.73 1318.55 1171.17 1318.79 1171.47L1258.83 1254.75L1154.35 1261.91C1154.33 1261.6 1154.34 1261.18 1154.27 1260.91L1318.23 1170.29ZM2173.68 648.016C2174.57 648.362 2175.57 648.364 2176.57 648.053L2224.32 858.645L2082.77 813.845L2173.68 648.016ZM2322.81 625.701C2323.29 624.582 2323.4 623.353 2323.15 622.172L2485.4 541.4C2485.43 541.456 2485.46 541.513 2485.52 541.626L2364.67 647.376L2322.81 625.701ZM2486.11 542.704C2486.59 543.298 2487.19 543.705 2487.88 543.968L2445.89 683.691C2445.05 683.558 2444.12 683.569 2443.22 684.05C2442.13 684.605 2441.25 685.558 2440.66 686.607L2365.87 647.876L2486.11 542.704ZM2488.72 544.101C2489.57 544.234 2490.49 544.223 2491.39 543.742C2494.02 542.441 2495.55 538.997 2494.74 536.066C2494.7 535.853 2494.52 535.669 2494.43 535.499L2502.49 529.239L2449.89 673.211L2488.72 544.101ZM2494.12 534.775C2494.06 534.661 2494.02 534.448 2493.9 534.378L2505.83 520.265L2503.07 527.876L2494.12 534.775ZM2302.05 698.065C2301.27 698.045 2300.52 698.083 2299.72 698.477C2299.12 698.798 2298.59 699.233 2298.08 699.724L2314.53 639.971L2302.05 698.065ZM2296.37 705.995C2296.4 706.052 2296.35 706.096 2296.38 706.152C2296.75 707.404 2297.49 708.351 2298.47 708.868L2290.79 726.399L2296.37 705.995ZM2302.65 698.158L2317.38 629.676C2318.17 629.695 2318.92 629.657 2319.71 629.263C2320.81 628.708 2321.63 627.799 2322.27 626.707L2363.79 648.172L2305.04 699.571C2304.44 698.75 2303.61 698.36 2302.65 698.158ZM2541.69 476.898L2508.57 516.022L2517.18 492.514L2541.42 476.387C2541.56 476.514 2541.6 476.728 2541.69 476.898ZM2540.82 475.153L2517.95 490.35L2532.37 450.988C2533.3 451.134 2534.25 451.18 2535.26 450.611C2535.45 450.538 2535.53 450.394 2535.64 450.307L2543.36 468.129C2541.29 469.724 2540.14 472.606 2540.82 475.153ZM2516.38 491.453L2510.74 495.187L2529.81 454.686L2516.38 491.453ZM2515.58 493.56L2506.5 518.501L2493.43 533.941C2493.26 533.757 2492.99 533.561 2492.76 533.421L2509.68 497.512L2515.58 493.56ZM2492.16 533.014C2491.07 532.584 2489.76 532.585 2488.53 533.17C2486.04 534.441 2484.65 537.44 2485.15 540.218L2326.75 619.104L2508.56 498.167L2492.16 533.014ZM2296.45 700.871L2291.73 698.571L2313.68 638.125L2296.45 700.871ZM2296.17 701.916L2287.18 734.449L2237.54 847.486L2291.36 699.603L2296.17 701.916ZM1978.45 1173.56C1977.68 1173.28 1976.81 1173.25 1975.93 1173.47L1955.88 1043.68L1982.7 1031.18L2028.41 1073.96L1978.45 1173.56ZM1506.57 1407.21C1506.04 1406.09 1505.27 1405.24 1504.27 1404.82L1531.01 1308.8L1620.97 1338.38C1620.73 1339.39 1620.62 1340.46 1620.87 1341.48L1506.57 1407.21ZM1286.97 1507.42C1286.68 1506.75 1286.38 1506.18 1285.91 1505.75L1388.93 1341.97L1497.64 1408.45C1497.22 1409.53 1497.08 1410.7 1497.22 1411.81L1286.97 1507.42ZM778.605 1625.52C778.567 1625.3 778.613 1625.1 778.521 1624.93L891.442 1558.53C892.257 1560.31 893.872 1561.29 895.68 1561.06L899.056 1599.84L778.605 1625.52ZM1324.13 1172.46C1324.43 1172.3 1324.67 1172.02 1324.99 1171.76L1367.87 1243.58C1366.85 1244.56 1366.19 1245.91 1365.95 1247.33L1314.16 1250.88L1322.47 1172.82C1323 1172.8 1323.55 1172.68 1324.13 1172.46ZM1531.34 1307.55L1572.65 1159.16L1623.57 1334.49C1622.63 1335.17 1621.86 1336.03 1621.35 1337.1L1531.34 1307.55ZM1314.33 1292.32L1357.18 1286.13L1347.45 1315.01L1313.76 1294.41C1314.09 1293.74 1314.31 1292.99 1314.33 1292.32ZM1314.29 1291.38C1314.24 1291.01 1314.3 1290.55 1314.17 1290.17C1314.14 1290.11 1314.11 1290.06 1314.08 1290L1366.69 1251.55C1367.14 1252.24 1367.67 1252.79 1368.3 1253.1L1357.5 1285.14L1314.29 1291.38ZM1369.52 1253.34C1370.36 1253.47 1371.29 1253.46 1372.24 1252.94C1372.73 1252.7 1373.08 1252.34 1373.46 1252.04L1395.73 1279.57L1358.91 1284.89L1369.52 1253.34ZM1426.77 1279.56L1413.89 1300.06L1397.86 1280.21L1425.43 1276.23C1425.42 1276.65 1425.41 1277.06 1425.54 1277.45C1425.78 1278.31 1426.24 1279.01 1426.77 1279.56ZM1427.73 1280.33C1428.9 1280.93 1430.37 1281.06 1431.76 1280.34C1431.95 1280.27 1432.13 1280.04 1432.3 1279.91L1498.89 1405.33L1414.66 1301.07L1427.73 1280.33ZM1425.33 1275.34L1397.18 1279.38L1374.33 1251.08C1374.54 1250.75 1374.83 1250.44 1375.01 1250.05L1425.82 1273.39C1425.54 1274.02 1425.41 1274.62 1425.33 1275.34ZM1304.68 1295.22L1150.91 1407.63C1150.82 1407.46 1150.81 1407.31 1150.66 1407.18L1241.78 1280.57L1304.45 1292.22C1304.33 1293.14 1304.29 1294.07 1304.53 1294.94C1304.59 1295.05 1304.7 1295.12 1304.68 1295.22ZM1310.79 1297.79C1311.72 1297.36 1312.44 1296.54 1313.04 1295.65L1346.96 1316.39L1283.58 1504.6C1283.58 1504.6 1283.58 1504.6 1283.55 1504.55L1309.16 1298.21C1309.75 1298.14 1310.25 1298.07 1310.79 1297.79ZM1284.8 1504.85L1348.08 1317.03L1387.92 1341.4L1284.98 1505.03C1284.91 1504.92 1284.88 1504.86 1284.8 1504.85ZM1348.55 1315.6L1358.6 1285.88L1396.42 1280.4L1413.19 1301.2L1388.7 1340.12L1348.55 1315.6ZM1413.96 1302.2L1498.52 1406.93C1498.47 1406.97 1498.39 1407.12 1498.37 1407.22L1389.68 1340.79L1413.96 1302.2ZM1500.67 1405.03C1500.48 1405.11 1500.29 1405.34 1500.13 1405.47L1433.14 1279.31C1433.75 1278.73 1434.3 1278.04 1434.71 1277.22L1529.82 1308.45L1503.05 1404.58C1502.27 1404.56 1501.46 1404.64 1500.67 1405.03ZM1435.01 1275.92C1435.27 1274.82 1435.38 1273.75 1435.11 1272.67C1434.97 1272.28 1434.74 1271.99 1434.58 1271.7L1567.98 1143.11L1572.01 1156.98L1530.15 1307.21L1435.01 1275.92ZM1573.37 1156.62L1578.96 1136.53C1579.44 1136.56 1579.99 1136.43 1580.55 1136.31L1621.1 1321.07L1573.37 1156.62ZM1575.51 1134.02C1575.54 1134.07 1575.6 1134.19 1575.63 1134.24L1568.76 1140.85L1568.02 1138.19L1575.51 1134.02ZM1576.15 1135.21C1576.6 1135.75 1577.18 1136.1 1577.75 1136.29L1572.7 1154.39L1569.07 1141.99L1576.15 1135.21ZM1596.05 1139.79L1750.8 1218.21L1751.58 1226.23L1746.99 1230.33L1596.05 1139.79ZM1889.74 863.835L1976.92 924.286L1949.95 992.612C1948.96 992.352 1947.89 992.394 1946.86 992.905C1946.75 992.992 1946.64 993.079 1946.53 993.166L1886.88 863.854L1889.74 863.835ZM2050.59 863.135C2050.58 863.706 2050.58 864.277 2050.72 864.818C2050.95 865.529 2051.26 866.096 2051.62 866.62L2045.8 874.01L2043.31 863.135L2050.59 863.135ZM2068.01 985.662L1997.42 936.692L2021.31 906.446L2045.21 876.201L2069.89 983.985C2069.13 984.436 2068.51 985.014 2068.01 985.662ZM1950.97 992.928L1977.79 924.89L1995.78 937.368L1951.56 993.435C1951.35 993.195 1951.17 993.012 1950.97 992.928ZM1953.25 997.283C1953.29 996.769 1953.23 996.242 1953.12 995.758C1952.89 995.047 1952.59 994.48 1952.22 993.956L1996.5 937.845L2067.2 986.885C2066.93 987.516 2066.71 988.261 2066.6 988.919L1953.25 997.283ZM2046.02 875.135L2052.29 867.14C2053.25 867.914 2054.36 868.243 2055.61 867.972L2057.13 878.487L2069.98 979.588L2046.02 875.135ZM2044.9 875.062L2020.76 905.632L1996.62 936.202L1978.28 923.514L2002.01 863.347L2042.16 863.162L2044.9 875.062ZM1977.5 922.924L1892.23 863.863L2000.95 863.389L1977.5 922.924ZM1879.74 1077.56L1831.23 1100.15C1831.16 1100.04 1831.13 1099.98 1831.07 1099.87L1943.25 1003.24L1879.74 1077.56ZM1761.26 1216.38L1801.6 1146.88L1765.52 1211.39L1761.26 1216.38ZM1753.52 1219.52C1753.05 1220.8 1752.86 1222.17 1753.26 1223.48C1753.36 1223.81 1753.57 1224.05 1753.73 1224.33L1752.63 1225.3L1752 1218.71L1753.52 1219.52ZM1752.74 1226.51L1754.16 1225.28C1754.64 1225.88 1755.16 1226.27 1755.79 1226.58L1754.8 1229.17C1754.23 1228.98 1753.62 1228.99 1752.95 1229.04L1752.74 1226.51ZM1755.46 1229.38C1755.37 1229.36 1755.31 1229.25 1755.22 1229.24L1756.22 1226.64C1756.42 1226.73 1756.67 1226.77 1756.92 1226.81L1755.46 1229.38ZM1762.14 1217.3L1762.33 1217.07L1762.17 1217.35C1762.17 1217.35 1762.17 1217.35 1762.14 1217.3ZM1768.27 1208.19L1824.16 1108.38C1824.47 1108.54 1824.89 1108.6 1825.26 1108.71L1819.42 1148.33L1768.27 1208.19ZM1826.36 1108.73C1826.94 1108.66 1827.49 1108.54 1828.07 1108.32C1829.16 1107.77 1829.99 1106.86 1830.63 1105.77L1848.14 1114.64L1820.76 1146.67L1826.36 1108.73ZM1831.16 1104.6C1831.53 1103.57 1831.65 1102.5 1831.54 1101.44L1877.59 1080.02L1848.9 1113.62L1831.16 1104.6ZM1821.77 1104.27C1821.82 1104.64 1821.78 1105 1821.86 1105.43C1822.13 1106.51 1822.76 1107.23 1823.46 1107.81L1760.65 1215.97C1759.84 1215.48 1758.89 1215.44 1757.89 1215.59L1744.9 1112.96L1821.77 1104.27ZM1751.69 1227.44L1751.87 1229.33C1751.73 1229.36 1751.59 1229.39 1751.46 1229.42C1750.47 1229.89 1749.76 1230.72 1749.1 1231.65L1747.75 1230.87L1751.69 1227.44ZM1756.12 1229.9L1757.85 1226.8C1758.29 1226.76 1758.68 1226.61 1759.06 1226.47L1760.62 1232.06L1757.78 1232.8C1757.77 1232.65 1757.76 1232.49 1757.72 1232.28C1757.48 1231.25 1756.82 1230.48 1756.12 1229.9ZM1762.61 1218.3L1765.03 1213.91L1819.02 1150.6L1810.19 1210.41L1762.89 1219.54C1762.83 1219.27 1762.93 1219.03 1762.86 1218.76C1762.82 1218.54 1762.67 1218.42 1762.61 1218.3ZM1882.53 1076.28L1945.11 1002.96C1946.1 1003.79 1947.35 1004.09 1948.65 1003.77L1954.66 1042.71L1882.53 1076.28ZM1949.69 1003.42C1949.75 1003.38 1949.78 1003.43 1949.83 1003.39C1950.51 1003.08 1951.11 1002.6 1951.64 1002.01L1981.67 1030.13L1955.7 1042.2L1949.69 1003.42ZM1952.28 1000.92C1952.78 1000.11 1953.12 999.183 1953.3 998.225L2066.7 989.817C2066.69 990.074 2066.72 990.288 2066.76 990.501L1982.9 1029.55L1952.28 1000.92ZM2050.74 861.706L2050.35 861.697L2042.92 861.569L2029.34 802.239L2029.39 802.196L2053.18 857.781C2051.94 858.78 2051.09 860.203 2050.74 861.706ZM1733.44 1020.85C1734.18 1020.5 1734.79 1019.92 1735.33 1019.33L1822.83 1100.08C1822.28 1100.93 1821.9 1101.8 1821.76 1102.82L1744.67 1111.53L1733.16 1020.91C1733.3 1020.88 1733.39 1020.9 1733.44 1020.85ZM1575.03 1132.28C1575.07 1132.5 1575.08 1132.65 1575.09 1132.81L1567.65 1136.94L1566.66 1133.41L1575.03 1132.28ZM1365.85 1248.72C1365.87 1249.19 1365.81 1249.64 1365.97 1250.08C1366 1250.14 1366.07 1250.25 1366.1 1250.31L1313.49 1288.76C1312.79 1287.62 1311.63 1286.92 1310.34 1286.82L1313.97 1252.25L1365.85 1248.72ZM1240.43 1280.36L1149.7 1406.41C1149.01 1405.99 1148.26 1405.61 1147.37 1405.68L1149.77 1268.46C1150.13 1268.41 1150.49 1268.37 1150.88 1268.22C1152.41 1267.47 1153.45 1265.98 1153.99 1264.4L1240.43 1280.36ZM1148.97 1268.7L1146.57 1405.92C1146.21 1405.96 1145.85 1406.01 1145.46 1406.16C1144.48 1406.62 1143.76 1407.45 1143.16 1408.34L1084.56 1369.92L1146.98 1268.18C1147.56 1268.53 1148.27 1268.69 1148.97 1268.7ZM1037.11 1343.78C1038.1 1343.32 1038.81 1342.49 1039.41 1341.6L1083.01 1370.19L1016.63 1478.47L1035.43 1344.25C1035.93 1344.17 1036.48 1344.05 1037.11 1343.78ZM1015.12 1480.83L1005.22 1496.98C1004.99 1496.84 1004.73 1496.8 1004.48 1496.76C1004.39 1496.74 1004.31 1496.73 1004.25 1496.62L1032.77 1355.04L1015.12 1480.83ZM1002.95 1507.78C1003.36 1507.69 1003.72 1507.64 1004.11 1507.49C1004.35 1507.38 1004.59 1507.1 1004.81 1506.93L1010.23 1515.36L1002.32 1571.88L1002.95 1507.78ZM1005.99 1505.97C1007.42 1504.33 1008.06 1501.94 1007.51 1499.78C1007.51 1499.78 1007.51 1499.78 1007.48 1499.72L1012.96 1496.27L1010.62 1513.08L1005.99 1505.97ZM1007.05 1498.92C1006.8 1498.47 1006.55 1498.02 1006.23 1497.71L1014.73 1483.83L1013.19 1495.11L1007.05 1498.92ZM900.665 1555.98C900.819 1555.12 900.834 1554.29 900.711 1553.49L990.432 1508.82C991.369 1511.41 993.946 1512.59 996.484 1511.28C998.015 1510.53 999.061 1509.04 999.6 1507.46C999.8 1507.54 1000.02 1507.53 1000.22 1507.61C1000.85 1507.92 1001.56 1508.08 1002.28 1507.99L1001.65 1573.08C1001.24 1573.17 1000.88 1573.21 1000.49 1573.36C998.963 1574.11 997.939 1575.5 997.378 1577.18L900.665 1555.98ZM1014.35 1494.26L1016.13 1481.41L1083.96 1370.81L1142.56 1409.23C1141.88 1410.68 1141.68 1412.31 1142.03 1413.82C1142.03 1413.82 1142.03 1413.82 1142.06 1413.88L1014.35 1494.26ZM1625.05 1333.78L1581.56 1135.9C1582.38 1135.41 1583.07 1134.69 1583.65 1133.89L1745.89 1231.3L1629.51 1335.16C1628.52 1333.76 1626.79 1333.28 1625.05 1333.78ZM1820.43 1149.06L1849.37 1115.19L1971.84 1177.34C1971.61 1177.93 1971.45 1178.63 1971.4 1179.25L1811.44 1210.14L1820.43 1149.06ZM1974.82 1173.71C1973.73 1174.27 1972.91 1175.18 1972.26 1176.27L1850.11 1114.27L1880.42 1078.81L1954.95 1044.11L1974.96 1173.68C1974.91 1173.73 1974.88 1173.67 1974.82 1173.71ZM2071.32 983.483L2064.88 933.061L2072.01 983.332C2071.76 983.292 2071.51 983.409 2071.32 983.483ZM2060.45 861.778C2060.45 861.207 2060.48 860.536 2060.34 859.995C2060.09 858.97 2059.47 858.25 2058.77 857.673L2076.4 825.51L2140.25 861.485L2060.45 861.778ZM2028.32 802.651L2041.83 861.554L2003.04 860.809L2025.98 802.75C2026.72 802.97 2027.52 802.889 2028.32 802.651ZM1890.23 862.459L1888.52 861.309C1888.72 860.821 1888.84 860.32 1888.95 859.819L2001.28 861.986L1890.23 862.459ZM1880.31 863.86L1881.01 863.866C1881.42 864.189 1881.88 864.47 1882.33 864.593L1870.92 912.94L1852.28 892.677L1880.31 863.86ZM1883.41 864.866C1884.11 864.872 1884.88 864.734 1885.62 864.383C1885.73 864.296 1885.84 864.209 1885.95 864.122L1945.78 993.774C1945.67 993.861 1945.51 993.991 1945.4 994.078L1871.81 914.014L1883.41 864.866ZM1944.66 995C1944.06 995.892 1943.63 996.811 1943.49 997.826L1850.27 1005.36L1871.51 915.316L1944.66 995ZM1943.44 999.168C1943.46 999.639 1943.46 1000.05 1943.53 1000.48C1943.63 1000.81 1943.81 1000.99 1943.96 1001.27L1830.63 1098.91C1830.07 1098.15 1829.34 1097.67 1828.52 1097.44L1849.92 1006.7L1943.44 999.168ZM1827.42 1097.27C1827.34 1097.26 1827.25 1097.24 1827.17 1097.23L1826.37 1008.66L1848.75 1006.83L1827.42 1097.27ZM1826.04 1097.57C1825.76 1097.63 1825.45 1097.63 1825.24 1097.81C1824.5 1098.16 1823.88 1098.74 1823.35 1099.33L1735.85 1018.59C1736.34 1017.78 1736.72 1016.9 1736.84 1015.99L1825.23 1008.85L1826.04 1097.57ZM1743.64 1111.62L1741.74 1111.85L1735.9 1050.67L1743.64 1111.62ZM1743.82 1113.11L1756.87 1215.85C1756.81 1215.89 1756.73 1215.88 1756.67 1215.92C1755.88 1216.31 1755.16 1216.98 1754.63 1217.73L1751.74 1215.66L1741.96 1113.38L1743.82 1113.11ZM1750.46 1214.74L1627.4 1126.23L1740.76 1113.46L1750.46 1214.74ZM1750.09 1216.34L1584.47 1132.41C1584.61 1131.97 1584.76 1131.53 1584.82 1131.07L1625.15 1126.5L1750.09 1216.34ZM1574.99 1130.77L1566.23 1132.04L1549.48 1074.29C1549.48 1074.29 1549.48 1074.29 1549.53 1074.25L1577.32 1126.52C1576.01 1127.66 1575.19 1129.14 1574.99 1130.77ZM1565.25 1133.65L1566.42 1137.68L1482.41 1184.59L1506.72 1141.9L1565.25 1133.65ZM1566.79 1138.93L1567.67 1141.97L1434.06 1270.74C1433.91 1270.61 1433.77 1270.48 1433.62 1270.36L1481.28 1186.65L1566.79 1138.93ZM1432.72 1269.7C1431.58 1269.15 1430.18 1269.14 1428.84 1269.81C1428.18 1270.18 1427.61 1270.56 1427.14 1271.1L1392.42 1236.33L1479.46 1187.71L1432.72 1269.7ZM1426.57 1272.05C1426.38 1272.28 1426.25 1272.47 1426.15 1272.71L1375.34 1249.37C1375.79 1248.2 1375.9 1246.97 1375.67 1245.69L1391.52 1236.81L1426.57 1272.05ZM1375.19 1244.52C1375.13 1244.41 1375.1 1244.35 1375.04 1244.24L1386.91 1232.3L1390.58 1235.94L1375.19 1244.52ZM1374.34 1243.25C1373.07 1241.91 1371.18 1241.56 1369.32 1242.41C1369.02 1242.57 1368.78 1242.84 1368.51 1243.06L1325.63 1171.24C1325.74 1171.16 1325.8 1171.11 1325.85 1171.07L1386.05 1231.44L1374.34 1243.25ZM1313.25 1252.34L1309.59 1286.85C1309.06 1286.88 1308.5 1287 1307.96 1287.27C1306.43 1288.02 1305.38 1289.52 1304.84 1291.09L1242.63 1279.56L1259.59 1256.01L1313.25 1252.34ZM1241.19 1279.33L1154.47 1263.28L1257.89 1256.16L1241.19 1279.33ZM1145.97 1267.45L1083.53 1369.29L1039.93 1340.7C1040.61 1339.25 1040.82 1337.62 1040.46 1336.11C1040.43 1336.05 1040.4 1336 1040.34 1335.88L1145.15 1266.23C1145.43 1266.74 1145.65 1267.14 1145.97 1267.45ZM1034.11 1344.09L1003.46 1496.44C1002.58 1496.25 1001.6 1496.3 1000.65 1496.83C1000.4 1496.95 1000.22 1497.18 1000 1497.35L967.941 1444.77L1033.03 1343.82C1033.31 1343.91 1033.68 1344.02 1034.11 1344.09ZM998.863 1498.11C998.225 1498.79 997.794 1499.7 997.448 1500.64C996.302 1500.09 994.933 1500.14 993.564 1500.75C991.048 1501.97 989.609 1505.17 990.193 1507.96L900.473 1552.63C900.243 1551.91 899.881 1551.39 899.412 1550.95L967.048 1445.98L998.863 1498.11ZM896.979 1560.74C897.118 1560.71 897.203 1560.73 897.31 1560.64C898.787 1559.94 899.864 1558.5 900.426 1556.82L997.162 1577.93C997.093 1578.23 997.024 1578.53 996.985 1578.88L900.325 1599.47L896.979 1560.74ZM1003.3 1572.97L1011.17 1516.8L1029.76 1545.67L1005.28 1573.91C1004.69 1573.4 1004.06 1573.09 1003.3 1572.97ZM1011.5 1514.57L1014.16 1495.63L1142.55 1414.78C1142.65 1414.95 1142.68 1415.17 1142.83 1415.29L1030.76 1544.53L1011.5 1514.57ZM1151.68 1409.05C1151.65 1409 1151.58 1408.88 1151.55 1408.83L1305.33 1296.41C1306.02 1297.4 1306.97 1298.02 1308.16 1298.2L1282.55 1504.55C1282.05 1504.62 1281.46 1504.69 1280.92 1504.96C1280.07 1505.4 1279.38 1506.12 1278.77 1506.86L1151.07 1413.78C1151.84 1412.35 1152.11 1410.57 1151.68 1409.05ZM1746.84 1231.76L1748.54 1232.76C1747.96 1234.12 1747.79 1235.65 1748.16 1237.06C1748.23 1237.33 1748.41 1237.51 1748.53 1237.74L1643.36 1324.15L1746.84 1231.76ZM1757.87 1234.12L1760.94 1233.35L1787.9 1331.63L1755.02 1239.43C1756.78 1238.25 1757.86 1236.24 1757.87 1234.12ZM1790.23 1336.93L1761.77 1233.17L1808.6 1221.48L1791.58 1336.57C1791.17 1336.66 1790.7 1336.8 1790.23 1336.93ZM1761.45 1231.88L1759.86 1226.07C1761.68 1225.01 1762.89 1222.97 1763.04 1220.81L1810.06 1211.74L1808.84 1220.06L1761.45 1231.88ZM1811.17 1211.5L1952.47 1184.17L1809.97 1219.72L1811.17 1211.5ZM1983.93 1030.59L2067 991.94C2067.32 992.821 2067.83 993.472 2068.55 993.948L2029 1072.76L1983.93 1030.59ZM2069.39 994.495C2070.19 994.829 2071.08 994.761 2072 994.593L2091.28 1118.97L2092.76 1129.27C2092.76 1129.27 2092.76 1129.27 2092.71 1129.31C2092.02 1129.62 2091.43 1130.1 2090.9 1130.69L2029.7 1073.49L2069.39 994.495ZM2072.85 994.312C2072.91 994.269 2072.99 994.282 2073.05 994.239C2073.24 994.165 2073.37 993.978 2073.53 993.847L2081.58 1050.39L2072.85 994.312ZM2073.33 983.488L2056.91 867.657C2056.91 867.657 2056.91 867.657 2056.96 867.613C2058.3 866.941 2059.33 865.702 2059.96 864.296L2182.57 900.154L2075.68 985.102C2075.08 984.281 2074.27 983.791 2073.33 983.488ZM2060.27 863.15C2060.32 863.107 2060.29 863.05 2060.35 863.007L2142.38 862.702L2193.54 891.547L2183.84 899.211L2060.27 863.15ZM2234.12 912.709L2212.82 900.698L2227.29 871.983L2236.06 910.731C2235.3 911.182 2234.61 911.904 2234.12 912.709ZM2211.73 900.112L2195.76 891.065L2226.18 866.93L2226.89 870.104L2211.73 900.112ZM2227.31 866.017L2227.74 865.67C2228.01 866.023 2228.33 866.334 2228.62 866.587L2227.81 868.224L2227.31 866.017ZM2229.91 856.824C2228.82 857.536 2227.95 858.488 2227.42 859.65L2225.74 859.128L2187.19 689.063L2229.91 856.824ZM2227.06 860.996C2227.04 861.096 2226.98 861.14 2227.02 861.196L2226.26 861.234L2226.15 860.75L2227.06 860.996ZM2226.82 862.412C2226.82 862.983 2226.8 863.654 2226.94 864.195C2226.98 864.408 2227.12 864.535 2227.21 864.705L2227.05 864.836L2226.48 862.359L2226.82 862.412ZM2225.92 865.748L2194.75 890.491L2145.37 862.653L2225.17 862.36L2225.92 865.748ZM2194.47 892.107L2211.07 901.461L2208.55 906.515L2185.01 899.654L2194.47 892.107ZM2212.16 902.048L2232.33 913.415L2209.79 906.814L2212.16 902.048ZM2228.29 870.116L2229.74 867.23C2230.51 867.507 2231.3 867.526 2232.13 867.345L2236.64 907.085L2228.29 870.116ZM2075.39 824.936L2057.84 856.956C2056.72 856.469 2055.41 856.47 2054.07 857.143C2053.96 857.23 2053.85 857.316 2053.75 857.403L2029.96 801.818C2030.55 801.341 2031.01 800.893 2031.42 800.231L2075.39 824.936ZM1851.54 891.886L1828.19 866.526C1828.71 865.778 1829.04 864.946 1829.25 864.044L1878.74 863.821L1851.54 891.886ZM1548.22 1074.98L1564.87 1132.24L1507.7 1140.29L1544.95 1074.93C1545.89 1075.39 1547.04 1075.36 1548.22 1074.98ZM1321.71 1172.86L1313.43 1250.97L1260.53 1254.6L1319.8 1172.2C1320.41 1172.6 1320.98 1172.8 1321.71 1172.86ZM918.55 1827.85C918.197 1828.05 917.958 1828.33 917.635 1828.59L777.158 1630.84C778.027 1629.73 778.658 1628.33 778.728 1626.89L899.232 1601.17L918.881 1827.75C918.827 1827.79 918.689 1827.82 918.55 1827.85ZM2233.21 856.2C2232.5 856.037 2231.78 856.131 2230.98 856.369L2177.83 647.524C2178.75 646.943 2179.47 646.121 2180.04 645.172L2290.38 699.086L2233.21 856.2ZM2224.65 860.254L2224.86 861.222L2143.22 861.536L2077.04 824.26L2082.02 815.181L2224.65 860.254ZM2076.08 823.644L2033.95 799.902L2080.97 814.808L2076.08 823.644ZM2022.89 799.775C2023.26 801.026 2024.06 801.93 2025.01 802.39L2002 860.75L1889.15 858.604C1889.19 858.247 1889.09 857.92 1889.04 857.549L2022.89 799.775ZM1879.88 862.495L1839.95 862.663L1879.22 859.848C1879.22 860.419 1879.22 860.99 1879.36 861.53C1879.49 861.914 1879.69 862.154 1879.88 862.495ZM1825.95 868.665C1826.49 868.387 1827.03 867.953 1827.48 867.505L1850.71 892.795L1825.61 918.595L1825.15 868.902C1825.39 868.785 1825.7 868.782 1825.95 868.665ZM1851.45 893.586L1870.58 914.442L1849.08 1005.58L1826.39 1007.42L1825.63 920.207L1851.45 893.586ZM1825.25 1007.45L1736.94 1014.6C1736.92 1014.13 1736.93 1013.72 1736.85 1013.29C1736.74 1012.81 1736.5 1012.51 1736.29 1012.11L1824.54 921.333L1825.25 1007.45ZM1732.03 1021.26L1740.74 1112L1625.8 1124.99L1606.75 1111.26L1728 1019.38C1728.85 1020.81 1730.31 1021.5 1732.03 1021.26ZM1623.43 1125.19L1584.83 1129.51C1584.78 1129.14 1584.82 1128.78 1584.75 1128.36C1584.71 1128.14 1584.59 1128.07 1584.5 1127.9L1605.36 1112.13L1623.43 1125.19ZM1584.07 1127.11C1582.89 1125.21 1580.67 1124.55 1578.54 1125.62C1578.29 1125.74 1578.11 1125.97 1577.89 1126.14L1550.1 1073.87C1550.42 1073.61 1550.66 1073.34 1550.9 1073.06L1604.55 1111.64L1584.07 1127.11ZM1544.1 1074.23L1506.34 1140.49L1473.27 1145.16L1543.81 1073.97C1543.87 1074.09 1543.99 1074.16 1544.1 1074.23ZM1505.44 1142.12L1480.64 1185.61L1391.53 1235.41L1387.65 1231.53L1471.56 1146.87L1505.44 1142.12ZM1386.8 1230.67L1326.45 1170.18C1327.05 1169.29 1327.5 1168.27 1327.62 1167.19L1469.61 1147.13L1386.8 1230.67ZM1032.04 1342.99L967.21 1443.57L874.425 1291.25C874.902 1290.71 875.317 1290.04 875.648 1289.37L1030.85 1337.66C1030.6 1338.76 1030.49 1339.84 1030.76 1340.92C1031.08 1341.8 1031.51 1342.44 1032.04 1342.99ZM872.755 1292.6C873.002 1292.48 873.186 1292.25 873.402 1292.08L966.433 1444.85L898.535 1550.19C897.759 1549.76 896.913 1549.63 895.967 1549.74L872.425 1292.7C872.479 1292.66 872.648 1292.69 872.755 1292.6ZM772.074 1632.74L723.327 1882.79C722.712 1882.8 722.02 1882.95 721.366 1883.31C720.82 1883.59 720.335 1883.98 719.881 1884.43L643.48 1795.46C644.688 1793.83 645.28 1791.64 644.765 1789.69C644.566 1789.04 644.289 1788.53 643.927 1788.01L770.582 1631.99C771.02 1632.37 771.482 1632.65 772.074 1632.74ZM724.458 1883.02L773.235 1633.03C773.85 1633.02 774.543 1632.87 775.196 1632.51C775.55 1632.3 775.789 1632.03 776.112 1631.77L916.589 1829.51C915.612 1830.71 915.073 1832.29 915.065 1833.84L727.626 1886.58C727.618 1886.42 727.641 1886.32 727.58 1886.21C727.103 1884.47 725.904 1883.4 724.458 1883.02ZM920.181 1827.43L900.478 1600.9L997.108 1580.25C997.146 1580.47 997.1 1580.67 997.169 1580.94C997.577 1582.4 998.468 1583.48 999.584 1583.96L921.189 1827.43C920.881 1827.44 920.543 1827.38 920.181 1827.43ZM1006.76 1576.21C1006.59 1575.62 1006.29 1575.21 1006.05 1574.75L1030.42 1546.61L1142.09 1720.05L1005.79 1581.56C1006.78 1579.95 1007.27 1578.01 1006.76 1576.21ZM1144.83 1719.96C1144.58 1720.08 1144.34 1720.36 1144.13 1720.53L1031.43 1545.47L1143.6 1416.14C1144.83 1417.27 1146.64 1417.6 1148.36 1416.78C1149.21 1416.35 1149.9 1415.62 1150.48 1414.83L1278.18 1507.91C1277.44 1509.4 1277.18 1511.07 1277.57 1512.64C1277.81 1513.51 1278.26 1514.2 1278.88 1514.77L1148.89 1720.03C1147.68 1719.37 1146.22 1719.25 1144.83 1719.96ZM1630.15 1336.19L1748.91 1238.57C1750.08 1240.32 1752.27 1240.92 1754.38 1239.95L1789.17 1337.54C1787.81 1338.47 1786.85 1339.98 1786.51 1341.64L1630.64 1338.81C1630.66 1338.14 1630.63 1337.52 1630.46 1336.92C1630.45 1336.6 1630.27 1336.42 1630.15 1336.19ZM1792.68 1336.74L1809.76 1221.19L1971.47 1180.82C1971.48 1180.97 1971.49 1181.13 1971.53 1181.34C1971.6 1181.62 1971.77 1181.8 1971.93 1182.08L1795.27 1338.08C1794.53 1337.29 1793.61 1336.89 1792.68 1336.74ZM1979.29 1174.1L2029.17 1074.65L2090.22 1131.73C2089.5 1132.96 2089.12 1134.41 2089.25 1135.93L1981.1 1176.72C1981.1 1176.72 1981.07 1176.67 1981.12 1176.62C1980.78 1175.43 1980.1 1174.59 1979.29 1174.1ZM2076.22 986.38C2076.16 986.266 2076.12 986.21 2076.06 986.096L2183.74 900.597L2207.85 907.65L2194.43 934.298L2076.22 986.38ZM2209.18 907.963L2233.16 914.947C2232.98 915.748 2232.99 916.476 2233.08 917.217L2196.34 933.405L2209.18 907.963ZM2237.55 910.186L2232.65 867.168C2232.84 867.094 2233.01 867.121 2233.21 867.047C2235.83 865.746 2237.37 862.303 2236.58 859.429C2236.54 859.215 2236.4 859.088 2236.34 858.975L2257.68 841.669L2238.86 910.027C2238.43 909.961 2238.02 910.052 2237.55 910.186ZM2235.75 857.74C2235.41 857.273 2235.01 856.949 2234.51 856.613L2285.62 740.276L2258.28 839.478L2235.75 857.74ZM2305.62 700.649L2364.99 648.671L2440.18 687.569C2439.95 688.156 2439.78 688.701 2439.73 689.315L2306.15 702.755C2306.12 702.285 2306.18 701.827 2306.02 701.386C2305.87 701.103 2305.69 700.919 2305.62 700.649ZM2504.23 528.005L2527.79 509.803L2449.56 677.468L2504.23 528.005ZM2504.74 526.529L2507.95 517.742L2542.21 477.292C2542.39 477.475 2542.54 477.602 2542.74 477.685L2528.58 508.109L2504.74 526.529ZM2543.66 478.245C2544.71 478.618 2545.86 478.59 2547.09 478.005C2549.36 476.908 2550.68 474.209 2550.53 471.642L2588.87 460.117C2588.9 460.331 2588.86 460.531 2588.9 460.745C2588.94 460.958 2589.08 461.085 2589.2 461.312L2530.39 506.732L2543.66 478.245ZM2289.12 732.314L2298.46 710.995L2260.7 837.523L2259.95 838.131L2289.12 732.314ZM2588.84 459.49L2550.5 471.014C2550.46 470.801 2550.51 470.6 2550.47 470.387C2549.69 467.513 2546.88 466.19 2544.2 467.534C2544.01 467.608 2543.93 467.751 2543.77 467.882L2536.04 450.06C2537.15 449.248 2537.94 448.125 2538.32 446.836L2588.89 457.733C2588.8 458.291 2588.75 458.905 2588.84 459.49ZM2531.03 450.518L2509.65 495.899L2328.35 616.502L2529.89 449.561C2530.19 449.972 2530.57 450.238 2531.03 450.518ZM2315.77 629.266L2290.75 698.054L2180.52 644.21C2180.74 643.622 2180.91 643.078 2180.97 642.464L2313.38 625.155C2313.38 625.569 2313.37 625.983 2313.5 626.367C2313.88 627.775 2314.71 628.736 2315.77 629.266ZM2172.75 647.298L2081.66 813.516L2032.4 797.893C2032.69 796.848 2032.72 795.763 2032.47 794.738C2032.36 794.254 2032.09 793.9 2031.88 793.503L2172.48 646.945C2172.52 647.158 2172.64 647.228 2172.75 647.298ZM1888.88 856.538C1888.02 853.807 1885.33 852.554 1882.7 853.855C1880.76 854.848 1879.41 856.92 1879.21 859.12L1829.68 862.712L1829.43 862.672C1829.45 862.572 1829.42 862.515 1829.39 862.458L2016.4 801.506L1888.88 856.538ZM1824.04 869.144L1824.47 919.764L1735.6 1011.12C1735.54 1011.01 1735.45 1011 1735.37 1010.98L1821.88 868.598C1822.55 868.961 1823.23 869.225 1824.04 869.144ZM1727.42 1018.46L1605.79 1110.64L1551.73 1071.74C1552.16 1070.82 1552.36 1069.76 1552.34 1068.72L1727.21 1017.64C1727.22 1017.8 1727.2 1017.9 1727.26 1018.01C1727.27 1018.17 1727.38 1018.24 1727.42 1018.46ZM1543.12 1072.98L1471.32 1145.43L1327.6 1165.74L1542.72 1072.24C1542.82 1072.57 1542.99 1072.75 1543.12 1072.98ZM1317.87 1169.19L1153.96 1259.78C1152.96 1257.49 1150.56 1256.49 1148.26 1257.53L1089.82 1089.33C1090.65 1088.73 1091.37 1087.91 1091.85 1086.95L1317.98 1166.25C1317.69 1167.3 1317.65 1168.22 1317.87 1169.19ZM1085.92 1090.27L1036.24 1332.75C1035.57 1332.8 1034.88 1332.95 1034.19 1333.26C1032.86 1333.93 1031.79 1335.11 1031.22 1336.47L876.01 1288.18C876.264 1287.08 876.379 1286.01 876.103 1284.93C876.003 1284.6 875.826 1284.42 875.672 1284.13L1083.9 1089.12C1084.46 1089.73 1085.12 1090.09 1085.92 1090.27ZM871.209 1293.03L894.751 1550.07C894.613 1550.1 894.528 1550.08 894.421 1550.17C892.944 1550.87 891.867 1552.31 891.328 1553.89L730.942 1521.6C731.119 1520.64 731.157 1519.71 730.919 1518.84C730.681 1517.98 730.227 1517.28 729.612 1516.72L868.756 1292.65C869.502 1293.02 870.263 1293.14 871.209 1293.03ZM727.541 1526.46C727.649 1526.38 727.756 1526.29 727.864 1526.2L771.253 1622.81C769.314 1624.37 768.222 1627.21 768.929 1629.66C769.128 1630.31 769.436 1630.88 769.767 1631.34L643.112 1787.36C642.82 1787.11 642.613 1786.87 642.297 1786.71L724.903 1526.88C725.718 1526.96 726.61 1526.89 727.541 1526.46ZM591.112 2037.83L719.441 1893.18C720.702 1894.37 722.509 1894.7 724.286 1893.84C724.394 1893.75 724.448 1893.71 724.555 1893.62L786.725 2031.58C785.571 2032.59 784.771 2033.97 784.455 2035.53L591.988 2040.87C591.988 2040.3 592.019 2039.79 591.881 2039.25C591.658 2038.69 591.358 2038.28 591.112 2037.83ZM787.802 2030.71C787.694 2030.8 787.64 2030.84 787.533 2030.93L725.309 1893.01C726.786 1891.74 727.671 1889.8 727.687 1887.83L915.157 1835.15C915.165 1835.31 915.142 1835.41 915.203 1835.52C915.441 1836.39 915.895 1837.09 916.426 1837.64L791.948 2030.79C790.709 2030.08 789.248 2029.95 787.802 2030.71ZM922.404 1827.68L1000.8 1584.21C1001.64 1584.34 1002.54 1584.27 1003.47 1583.85C1004.07 1583.53 1004.61 1583.09 1005.06 1582.64L1142.45 1722.29C1141.56 1723.66 1141.2 1725.26 1141.41 1726.8L924.626 1830.2C924.149 1829.04 923.35 1828.14 922.404 1827.68ZM1149.79 1720.69L1279.78 1515.43C1280.98 1516.08 1282.41 1516.15 1283.84 1515.49C1283.89 1515.45 1283.94 1515.4 1284 1515.36L1378.27 1722.82C1377.22 1723.75 1376.5 1724.99 1376.18 1726.39L1151.21 1724.6C1151.21 1724.03 1151.21 1723.46 1151.07 1722.92C1150.77 1721.94 1150.32 1721.24 1149.79 1720.69ZM1379.46 1721.87C1379.4 1721.91 1379.35 1721.96 1379.29 1722L1285.02 1514.54C1285.4 1514.23 1285.69 1513.91 1285.95 1513.54L1449.43 1626.92C1448.74 1628.37 1448.54 1630 1448.95 1631.46C1449.16 1632.28 1449.58 1632.91 1450.03 1633.45L1384.01 1722.27C1382.79 1721.3 1381.09 1721.04 1379.46 1721.87ZM1455.5 1623.57L1501.37 1416.05C1502.07 1416.05 1502.8 1415.96 1503.53 1415.61C1504.08 1415.33 1504.48 1414.92 1504.91 1414.58L1654.48 1581.26C1653.75 1582.34 1653.3 1583.51 1653.22 1584.8L1458.55 1627.47C1458.51 1627.26 1458.53 1627 1458.49 1626.79C1458.07 1625.01 1456.9 1623.99 1455.5 1623.57ZM1660.55 1578.89C1659.83 1578.57 1658.96 1578.54 1658.13 1578.72L1627.03 1344.58C1627.09 1344.54 1627.12 1344.59 1627.17 1344.55C1628.95 1343.69 1630.06 1341.89 1630.5 1339.99L1786.37 1342.81C1786.35 1343.48 1786.38 1344.11 1786.55 1344.71C1786.8 1345.73 1787.42 1346.45 1788.12 1347.03L1660.55 1578.89ZM1795.71 1339.19L1972.37 1183.19C1973.5 1184.56 1975.29 1185 1977.1 1184.35L2007.47 1309.48C2005.7 1310.5 2004.51 1312.44 2004.25 1314.53L1796.22 1340.98C1796.17 1340.61 1796.21 1340.26 1796.16 1339.89C1796.01 1339.6 1795.83 1339.42 1795.71 1339.19ZM2011.2 1309.08C2010.32 1308.73 2009.34 1308.79 2008.3 1309.14L1977.93 1184.01C1980.1 1182.74 1981.37 1180.09 1981.11 1177.61L2089.27 1136.82C2089.3 1136.88 2089.3 1136.88 2089.24 1136.92C2089.58 1138.11 2090.27 1138.95 2091.14 1139.55L2011.2 1309.08ZM2195.55 934.941L2233.22 918.329C2233.45 919.04 2233.84 919.621 2234.29 920.158L2099.51 1125.29L2195.55 934.941ZM2259.38 840.222L2260.08 839.657L2252.96 863.505L2259.38 840.222ZM2300.01 709.421C2300.85 709.554 2301.71 709.43 2302.59 709.048C2304.53 708.055 2305.83 706.027 2306.08 703.783L2439.67 690.344C2439.69 690.814 2439.63 691.272 2439.79 691.712C2439.83 691.926 2439.94 691.996 2440.04 692.166L2262.07 836.336L2300.01 709.421ZM2529.66 508.382L2589.6 462.05C2589.76 462.333 2589.97 462.574 2590.14 462.757L2448.64 682.046L2529.66 508.382Z" fill="#777FAD"/>
</g>
</svg>
