<svg width="697" height="152" viewBox="0 0 697 152" fill="none" xmlns="http://www.w3.org/2000/svg">
<path d="M1.20361 70.285C1.20361 70.285 15.579 12.3428 25.1626 12.3428C34.7463 12.3428 39.5381 67.153 49.1217 67.153C58.7053 67.153 63.4971 28.0028 73.0807 28.0028C82.6643 28.0028 87.4561 90.6431 97.0397 90.6431C106.623 90.6431 111.415 15.4748 120.999 15.4748C130.582 15.4748 135.374 49.6137 144.958 76.549C154.541 103.484 159.333 150.151 168.917 150.151C178.5 150.151 183.292 62.455 192.876 62.455C202.459 62.455 207.251 134.491 216.835 134.491C226.419 134.491 231.21 1.38074 240.794 1.38074C250.378 1.38074 255.169 104.737 264.753 109.435C274.337 114.133 279.128 111.314 288.712 114.133C298.296 116.952 303.087 123.529 312.671 123.529C322.255 123.529 327.046 123.529 336.63 111.001C346.214 98.4731 351.005 53.0589 360.589 53.0589C370.173 53.0589 374.965 81.247 384.548 81.247C394.132 81.247 398.924 37.3989 408.507 37.3989C418.091 37.3989 422.883 126.661 432.466 126.661C442.05 126.661 446.842 18.6068 456.425 18.6068C466.009 18.6068 470.801 101.605 480.384 101.605C489.968 101.605 494.76 85.3186 504.343 67.153C513.927 48.9873 518.719 10.7768 528.302 10.7768C537.886 10.7768 542.678 18.92 552.261 45.2289C561.845 71.5378 566.637 142.321 576.22 142.321C585.804 142.321 590.596 128.227 600.179 128.227C609.763 128.227 614.555 134.491 624.138 134.491C633.722 134.491 638.514 94.0883 648.097 76.549C657.681 59.0097 662.473 46.7949 672.057 46.7949C681.64 46.7949 696.016 62.455 696.016 62.455" stroke="#602BF8" stroke-width="2"/>
</svg>
