<svg width="33" height="32" viewBox="0 0 33 32" fill="none" xmlns="http://www.w3.org/2000/svg">
<path d="M26.125 14.6667H6.875C5.35622 14.6667 4.125 15.8606 4.125 17.3333V26.6667C4.125 28.1394 5.35622 29.3333 6.875 29.3333H26.125C27.6438 29.3333 28.875 28.1394 28.875 26.6667V17.3333C28.875 15.8606 27.6438 14.6667 26.125 14.6667Z" stroke="black" stroke-opacity="0.5" stroke-width="2" stroke-linecap="round" stroke-linejoin="round"/>
<path d="M9.625 14.6667V9.33332C9.625 7.56521 10.3493 5.86952 11.6386 4.61928C12.928 3.36904 14.6766 2.66666 16.5 2.66666C18.3234 2.66666 20.072 3.36904 21.3614 4.61928C22.6507 5.86952 23.375 7.56521 23.375 9.33332V14.6667" stroke="black" stroke-opacity="0.5" stroke-width="2" stroke-linecap="round" stroke-linejoin="round"/>
</svg>
