<svg width="20" height="20" viewBox="0 0 20 20" fill="none" xmlns="http://www.w3.org/2000/svg">
<g clip-path="url(#clip0_32_2477)">
<path d="M11.6666 12.3V2.91671C11.6666 2.36417 11.4471 1.83427 11.0564 1.44357C10.6657 1.05287 10.1358 0.833374 9.58325 0.833374C9.03072 0.833374 8.50081 1.05287 8.11011 1.44357C7.71941 1.83427 7.49992 2.36417 7.49992 2.91671V12.3C6.83098 12.747 6.32352 13.3972 6.05248 14.1547C5.78144 14.9122 5.76119 15.7368 5.99472 16.5066C6.22825 17.2765 6.70318 17.9509 7.34937 18.4301C7.99555 18.9094 8.77874 19.1681 9.58325 19.1681C10.3878 19.1681 11.1709 18.9094 11.8171 18.4301C12.4633 17.9509 12.9383 17.2765 13.1718 16.5066C13.4053 15.7368 13.3851 14.9122 13.114 14.1547C12.843 13.3972 12.3355 12.747 11.6666 12.3Z" stroke="#F48C13" stroke-width="2" stroke-linecap="round" stroke-linejoin="round"/>
</g>
<defs>
<clipPath id="clip0_32_2477">
<rect width="20" height="20" fill="white"/>
</clipPath>
</defs>
</svg>
