<svg width="3909" height="1775" viewBox="0 0 3909 1775" fill="none" xmlns="http://www.w3.org/2000/svg">
<path d="M3.7869 1400.1L19.6351 1439.94L41.5057 1406.86L3.7869 1400.1Z" fill="#194F90"/>
<path d="M3490.47 571.156L3372.83 597.46L3440.5 747.126L3490.47 571.156Z" fill="url(#paint0_linear_1_824)"/>
<path d="M3505.05 719.195L3623.34 373.273L3864.95 831.523L3505.05 719.195Z" fill="url(#paint1_linear_1_824)"/>
<path d="M2376.28 1353.76L2305.94 1294.17L2285.43 1396.67L2376.28 1353.76Z" fill="url(#paint2_linear_1_824)"/>
<path d="M2200.19 1515.41L2232.4 1302.8L2090.02 1376.14L2200.19 1515.41Z" fill="#45A041"/>
<path d="M2200.43 1195.02L2161.09 1217.59L2199.78 1252.71L2200.43 1195.02Z" fill="url(#paint3_linear_1_824)"/>
<path d="M3374.52 772.475L3379.62 815.006L3408.63 787.064L3374.52 772.475Z" fill="#3A8DDE"/>
<defs>
<linearGradient id="paint0_linear_1_824" x1="3466.79" y1="556.071" x2="3372.58" y2="703.83" gradientUnits="userSpaceOnUse">
<stop stop-color="#3A8DDE"/>
<stop offset="0.99" stop-color="#80C67D"/>
</linearGradient>
<linearGradient id="paint1_linear_1_824" x1="4009.86" y1="757.496" x2="3512.12" y2="726.637" gradientUnits="userSpaceOnUse">
<stop stop-color="#8BB5DE"/>
<stop offset="1" stop-color="#1B8FD7"/>
</linearGradient>
<linearGradient id="paint2_linear_1_824" x1="2401.2" y1="1339.04" x2="2290.43" y2="1323.76" gradientUnits="userSpaceOnUse">
<stop stop-color="#3A8DDE"/>
<stop offset="0.99" stop-color="#80C67D"/>
</linearGradient>
<linearGradient id="paint3_linear_1_824" x1="2171.22" y1="1194.6" x2="2198.27" y2="1253.4" gradientUnits="userSpaceOnUse">
<stop stop-color="#3A8DDE"/>
<stop offset="0.99" stop-color="#80C67D"/>
</linearGradient>
</defs>
</svg>
