<svg width="2883" height="2137" viewBox="0 0 2883 2137" fill="none" xmlns="http://www.w3.org/2000/svg">
<g opacity="0.5" filter="url(#filter0_f_1_809)">
<path fill-rule="evenodd" clip-rule="evenodd" d="M1672.94 1071.91H164.939V1125.3H1672.94V1071.91Z" fill="#DFE3EC"/>
</g>
<g opacity="0.7">
<path opacity="0.8" d="M310.562 1661.6C312.147 1661.1 313.316 1659.79 314.02 1658.21L363.287 1677.07C362.97 1678.02 362.819 1679.04 362.974 1680.09C363.502 1683.07 366.174 1684.83 368.95 1683.92C371.668 1683.05 373.497 1679.87 372.943 1676.83C372.923 1676.61 372.789 1676.46 372.713 1676.28L593.248 1538.84C594.353 1540.63 596.387 1541.54 598.455 1540.83C600.55 1540.18 602.024 1538.22 602.414 1536.06L735.419 1539.91C735.433 1540.29 735.331 1540.73 735.428 1541.14C735.956 1544.12 738.628 1545.87 741.346 1545C744.122 1544.09 745.893 1540.95 745.365 1537.97C745.3 1537.47 745.064 1537.08 744.885 1536.65L897.285 1413.45C898.403 1414.92 900.277 1415.63 902.174 1415.02C904.498 1414.23 906.041 1411.92 906.138 1409.41L1103.66 1377.51C1103.69 1377.57 1103.63 1377.6 1103.66 1377.66C1104.18 1380.64 1106.86 1382.4 1109.63 1381.49C1112.35 1380.62 1114.18 1377.44 1113.63 1374.4C1113.41 1373.38 1112.94 1372.59 1112.38 1371.93L1210.73 1244.35C1211.87 1245.19 1213.29 1245.49 1214.76 1245.06C1217.02 1244.3 1218.57 1241.99 1218.77 1239.57L1396.88 1216.63C1396.93 1216.75 1396.84 1216.89 1396.89 1217.01C1397.42 1219.99 1400.1 1221.75 1402.87 1220.84C1405.33 1220.04 1406.92 1217.47 1406.85 1214.75L1628.7 1156.11C1629.41 1158.83 1631.89 1160.48 1634.52 1159.57C1635.8 1159.19 1636.84 1158.25 1637.56 1157.05L1855.2 1271.74C1854.82 1272.73 1854.64 1273.84 1854.82 1274.95C1855.35 1277.93 1858.02 1279.69 1860.8 1278.78C1863.57 1277.87 1865.34 1274.73 1864.79 1271.69C1864.72 1271.35 1864.56 1271.14 1864.43 1270.84L2088.23 1110.33C2089.38 1111.87 2091.28 1112.63 2093.26 1112.05C2096.03 1111.14 2097.8 1108 2097.28 1105.02C2097.11 1104.12 2096.7 1103.3 2096.16 1102.7L2253.84 902.24C2254.96 903.022 2256.37 903.318 2257.84 902.89C2260.56 902.015 2262.39 898.84 2261.84 895.8C2261.56 894.28 2260.77 893.072 2259.7 892.411L2364.33 647.545C2365.15 647.811 2366.05 647.886 2366.92 647.585C2369.64 646.71 2371.47 643.535 2370.92 640.495C2370.85 639.998 2370.62 639.604 2370.44 639.175L2565.81 474.833C2566.96 476.209 2568.73 476.83 2570.57 476.255C2573.34 475.346 2575.11 472.205 2574.56 469.165C2574.03 466.187 2571.36 464.427 2568.58 465.337C2567.25 465.757 2566.15 466.728 2565.4 468.025L2444.8 404.457C2445.21 403.369 2445.45 402.227 2445.24 401.048C2444.69 398.008 2442.04 396.309 2439.27 397.219C2437.43 397.794 2436.05 399.47 2435.5 401.413L2243.95 376.253C2244 375.686 2244.08 375.181 2243.99 374.622C2243.46 371.643 2240.79 369.883 2238.01 370.793C2235.29 371.668 2233.47 374.843 2234.02 377.883C2234.18 378.782 2234.57 379.544 2235.05 380.175L2094.54 552.243C2093.4 551.399 2091.96 551.042 2090.43 551.505C2087.91 552.338 2086.3 554.999 2086.45 557.749L1862.16 625.988C1861.42 623.367 1858.99 621.844 1856.41 622.711C1854.65 623.312 1853.36 624.858 1852.76 626.679L1629.51 589.155C1629.56 588.588 1629.61 588.021 1629.5 587.401C1628.97 584.422 1626.3 582.662 1623.52 583.572C1620.8 584.447 1618.97 587.622 1619.5 590.601C1619.64 591.439 1620 592.139 1620.4 592.743L1547.1 670.458C1545.97 669.3 1544.31 668.767 1542.61 669.334C1540.46 670.02 1538.98 672.141 1538.64 674.417L1341.6 685.859C1341.58 685.641 1341.62 685.388 1341.6 685.17C1341.07 682.192 1338.4 680.432 1335.62 681.341C1332.9 682.217 1331.08 685.392 1331.63 688.431C1331.78 689.488 1332.34 690.303 1332.98 690.987L1186.17 900.988C1185.11 900.328 1183.8 900.12 1182.42 900.575C1180.4 901.253 1178.94 903.06 1178.46 905.187L969.571 898.405C969.558 898.03 969.627 897.681 969.614 897.306C969.06 894.266 966.413 892.567 963.638 893.477C960.92 894.352 959.092 897.527 959.645 900.567C959.877 901.807 960.484 902.744 961.294 903.482L867.001 1059.14C865.987 1058.6 864.764 1058.42 863.491 1058.8C860.772 1059.68 858.944 1062.85 859.497 1065.89C859.658 1066.79 860.023 1067.49 860.502 1068.12L705.761 1254.01C704.619 1253.16 703.154 1252.74 701.651 1253.27C698.933 1254.14 697.105 1257.32 697.658 1260.36C697.961 1261.94 698.836 1263.17 700.041 1263.83L672.532 1331.67L481.944 1447.42C480.87 1445.53 478.836 1444.62 476.71 1445.36C473.992 1446.24 472.163 1449.41 472.717 1452.45C472.878 1453.35 473.242 1454.05 473.721 1454.68L312.537 1651.74C311.395 1650.9 309.955 1650.54 308.51 1651.03C305.792 1651.91 303.963 1655.08 304.517 1658.12C305.114 1660.75 307.761 1662.45 310.562 1661.6ZM2565.13 473.713L2369.78 638.116C2369.35 637.607 2368.81 637.168 2368.2 636.92L2439.17 408.318C2439.87 408.435 2440.57 408.396 2441.25 408.138C2442.58 407.717 2443.74 406.711 2444.43 405.45L2565.03 469.017C2564.62 470.106 2564.38 471.248 2564.59 472.427C2564.71 472.89 2564.95 473.284 2565.13 473.713ZM862.083 1069.16C862.74 1069.53 863.492 1069.61 864.218 1069.64L871.519 1207.71C870.018 1208.92 869.212 1210.94 869.305 1212.88L748.364 1245.6L862.083 1069.16ZM1337.67 692.068C1338.23 691.879 1338.67 691.542 1339.12 691.265L1473.12 880.553C1471.92 881.969 1471.26 883.824 1471.55 885.719L1352.32 932.824C1351.62 930.796 1349.96 929.574 1347.97 929.624L1337.5 692.172C1337.55 692.138 1337.61 692.103 1337.67 692.068ZM1544.6 680.095C1545.48 679.795 1546.23 679.188 1546.87 678.494L1699.33 817.062C1698.7 818.132 1698.43 819.37 1698.46 820.653L1481.34 882.186C1480.92 880.674 1479.96 879.57 1478.72 879.013L1542.36 680.223C1543.14 680.367 1543.84 680.327 1544.6 680.095ZM2438.07 407.911L2367.1 636.513C2366.41 636.396 2365.71 636.435 2365 636.632C2364.43 636.821 2363.92 637.132 2363.43 637.505L2295.31 537.017C2296.65 535.593 2297.43 533.512 2297.09 531.494C2297 530.935 2296.71 530.419 2296.51 529.929L2436.55 406.681C2437 407.25 2437.46 407.663 2438.07 407.911ZM2252.47 895.173L2096.01 837.622C2096.24 836.794 2096.36 835.878 2096.2 834.979L2214.09 786.916C2214.92 789.407 2217.27 790.746 2219.74 789.948C2219.85 789.879 2219.97 789.81 2220.08 789.741L2254.81 892.533C2253.8 893.217 2253.01 894.076 2252.47 895.173ZM1859 1267.98L1815.63 1091.66C1817.86 1090.46 1819.3 1087.75 1818.82 1085.05C1818.8 1084.99 1818.77 1084.93 1818.72 1084.81L1928.93 1032.26C1929.45 1033.48 1930.23 1034.32 1931.3 1034.82L1860.83 1267.72C1860.3 1267.65 1859.63 1267.76 1859 1267.98ZM1638.24 1151.81C1638.11 1151.35 1637.99 1150.88 1637.78 1150.55L1704.59 1077.37L1808.97 1086.86C1808.95 1087.18 1808.91 1087.59 1808.95 1087.87L1638.24 1151.81ZM743.205 1534.52C742.357 1534.04 741.357 1533.87 740.345 1534.03L711.283 1317.31L847.942 1384.29L743.205 1534.52ZM593.166 1532.98C592.595 1534.02 592.381 1535.22 592.53 1536.44L424.361 1590.86C424.335 1590.8 424.31 1590.74 424.258 1590.62L553.488 1504.81L593.166 1532.98ZM423.772 1589.46C423.35 1588.79 422.783 1588.29 422.126 1587.92L475.998 1455.84C476.826 1456.11 477.744 1456.24 478.679 1455.91C479.812 1455.53 480.766 1454.72 481.446 1453.77L552.34 1504.12L423.772 1589.46ZM421.297 1587.65C420.469 1587.39 419.551 1587.25 418.616 1587.59C415.897 1588.46 414.069 1591.64 414.623 1594.68C414.642 1594.89 414.802 1595.1 414.879 1595.29L406.327 1600.22L471.118 1465.61L421.297 1587.65ZM415.128 1596.06C415.179 1596.18 415.199 1596.4 415.307 1596.49L402.228 1608.6L405.635 1601.49L415.128 1596.06ZM620.088 1464.42C620.865 1464.57 621.617 1464.65 622.438 1464.38C623.062 1464.16 623.635 1463.81 624.182 1463.41L602.639 1520.13L620.088 1464.42ZM626.425 1457.45C626.4 1457.39 626.457 1457.35 626.431 1457.29C626.174 1455.99 625.516 1454.93 624.591 1454.26L633.745 1438.07L626.425 1457.45ZM619.508 1464.23L598.906 1529.9C598.129 1529.76 597.377 1529.67 596.556 1529.94C595.422 1530.32 594.526 1531.09 593.789 1532.07L554.435 1504.16L617.256 1462.45C617.78 1463.36 618.571 1463.88 619.508 1464.23ZM362.84 1645.97L399.146 1612.38L388.538 1634.36L363.07 1646.52C362.936 1646.37 362.916 1646.16 362.84 1645.97ZM363.55 1647.84L387.592 1636.39L369.84 1673.18C368.929 1672.89 367.986 1672.69 366.935 1673.1C366.738 1673.14 366.649 1673.27 366.535 1673.34L360.416 1654.41C362.618 1653.16 364.007 1650.48 363.55 1647.84ZM389.247 1635.54L395.172 1632.73L372.707 1669.92L389.247 1635.54ZM390.218 1633.57L401.409 1610.25L415.735 1596.99C415.895 1597.2 416.137 1597.44 416.354 1597.62L396.429 1630.59L390.218 1633.57ZM416.922 1598.12C417.961 1598.72 419.268 1598.92 420.541 1598.54C423.119 1597.67 424.763 1594.91 424.509 1592.08L588.687 1538.91L397.594 1630.12L416.922 1598.12ZM625.893 1462.52L630.39 1465.56L603.318 1522.1L625.893 1462.52ZM626.267 1461.53L638.031 1430.65L697.178 1326.29L630.847 1464.59L626.267 1461.53ZM982.885 1043.65C983.625 1044.05 984.485 1044.22 985.383 1044.14L993.978 1176.21L966.26 1184.37L924.592 1134.62L982.885 1043.65ZM1471.86 886.611C1472.28 887.809 1472.97 888.772 1473.93 889.345L1439.01 980.455L1352.25 936.776C1352.57 935.818 1352.78 934.772 1352.62 933.716L1471.86 886.611ZM1698.66 821.989C1698.89 822.697 1699.14 823.309 1699.57 823.818L1582.99 970.083L1480.82 886.791C1481.34 885.79 1481.58 884.648 1481.54 883.523L1698.66 821.989ZM2213.79 785.492C2213.81 785.71 2213.74 785.901 2213.82 786.085L2095.89 834.087C2095.24 832.181 2093.72 830.951 2091.91 830.898L2091.94 791.848L2213.79 785.492ZM1632.57 1148.72C1632.26 1148.83 1632 1149.06 1631.65 1149.27L1595.33 1071.14C1596.42 1070.32 1597.2 1069.09 1597.56 1067.72L1649.3 1072.43L1634.25 1148.62C1633.72 1148.56 1633.16 1148.59 1632.57 1148.72ZM1438.57 981.639L1384.61 1122.44L1349.32 940.233C1350.32 939.707 1351.16 938.969 1351.76 937.995L1438.57 981.639ZM1652.74 1031.24L1609.65 1030.59L1621.83 1003.45L1653.49 1029.26C1653.1 1029.87 1652.82 1030.58 1652.74 1031.24ZM1652.7 1032.19C1652.72 1032.56 1652.62 1033 1652.71 1033.41C1652.74 1033.47 1652.76 1033.53 1652.79 1033.59L1597.19 1063.42C1596.8 1062.66 1596.33 1062.02 1595.73 1061.62L1609.25 1031.52L1652.7 1032.19ZM1594.54 1061.19C1593.71 1060.92 1592.79 1060.78 1591.8 1061.15C1591.29 1061.31 1590.92 1061.61 1590.52 1061.85L1570.79 1030.98L1607.82 1031.54L1594.54 1061.19ZM1539.98 1026.05L1554.55 1007.74L1568.74 1030L1541.01 1029.57C1541.06 1029.16 1541.1 1028.75 1541.01 1028.34C1540.84 1027.44 1540.45 1026.68 1539.98 1026.05ZM1539.09 1025.13C1537.97 1024.35 1536.53 1023.99 1535.09 1024.48C1534.89 1024.52 1534.69 1024.72 1534.51 1024.83L1479.31 889.697L1553.87 1006.62L1539.09 1025.13ZM1541.04 1030.47L1569.34 1030.93L1589.56 1062.66C1589.33 1062.96 1589.01 1063.22 1588.8 1063.58L1540.38 1032.33C1540.71 1031.75 1540.9 1031.17 1541.04 1030.47ZM1662.58 1029.9L1825.08 942.701C1825.16 942.884 1825.15 943.041 1825.29 943.19L1723.76 1054.44L1662.55 1032.91C1662.75 1032.02 1662.87 1031.11 1662.71 1030.21C1662.66 1030.08 1662.55 1030 1662.58 1029.9ZM1656.73 1026.38C1655.77 1026.65 1654.99 1027.35 1654.31 1028.15L1622.44 1002.16L1701.78 825.322C1701.78 825.322 1701.78 825.322 1701.8 825.383L1658.39 1026.22C1657.8 1026.19 1657.3 1026.19 1656.73 1026.38ZM1700.59 824.888L1621.38 1001.34L1583.94 970.813L1700.43 824.677C1700.48 824.8 1700.51 824.861 1700.59 824.888ZM1620.79 1002.69L1608.22 1030.61L1570.19 1030.04L1555.35 1006.72L1583.06 971.96L1620.79 1002.69ZM1554.66 1005.6L1479.82 888.164C1479.88 888.129 1479.97 887.999 1480 887.903L1582.14 971.134L1554.66 1005.6ZM1477.52 889.705C1477.72 889.662 1477.93 889.463 1478.1 889.359L1533.63 1025.28C1532.97 1025.76 1532.36 1026.36 1531.88 1027.11L1440.16 980.985L1475.12 889.779C1475.89 889.923 1476.7 889.971 1477.52 889.705ZM1531.47 1028.35C1531.12 1029.41 1530.91 1030.45 1531.09 1031.57C1531.19 1031.97 1531.4 1032.31 1531.53 1032.61L1387.86 1139.11L1385.06 1124.7L1439.72 982.169L1531.47 1028.35ZM1383.68 1124.84L1376.37 1143.9C1375.9 1143.8 1375.34 1143.83 1374.78 1143.87L1350.61 953.949L1383.68 1124.84ZM1379.58 1146.95C1379.56 1146.89 1379.51 1146.76 1379.48 1146.7L1386.88 1141.24L1387.39 1144L1379.58 1146.95ZM1379.05 1145.66C1378.65 1145.06 1378.11 1144.62 1377.56 1144.34L1384.15 1127.16L1386.67 1140.06L1379.05 1145.66ZM1359.69 1137.95L1212.85 1035.48L1212.77 1027.4L1217.68 1024.05L1359.69 1137.95ZM1043.99 1365.32L962.68 1291.44L995.42 1227.87C996.383 1228.29 997.44 1228.41 998.516 1228.07C998.631 1228 998.745 1227.93 998.86 1227.86L1046.82 1365.75L1043.99 1365.32ZM884.198 1340.46C884.247 1339.89 884.297 1339.32 884.207 1338.76C884.04 1338.02 883.784 1337.41 883.471 1336.83L889.899 1330.42L891.423 1341.61L884.198 1340.46ZM877.573 1216.01L943.402 1275.86L917.04 1302.1L890.678 1328.34L875.562 1217.38C876.358 1217.05 877.019 1216.58 877.573 1216.01ZM994.432 1227.39L961.869 1290.7L945.095 1275.45L993.896 1226.8C994.081 1227.07 994.241 1227.28 994.432 1227.39ZM992.544 1222.71C992.469 1223.21 992.476 1223.74 992.541 1224.24C992.708 1224.98 992.964 1225.6 993.277 1226.17L944.419 1274.86L878.481 1214.93C878.812 1214.34 879.091 1213.64 879.255 1213L992.544 1222.71ZM889.775 1329.27L882.852 1336.21C881.965 1335.29 880.894 1334.78 879.633 1334.86L879.039 1324.17L875.087 1221.73L889.775 1329.27ZM890.884 1329.52L917.522 1302.99L944.161 1276.47L961.261 1291.99L932.449 1347.96L892.563 1341.77L890.884 1329.52ZM961.988 1292.7L1041.52 1364.9L933.507 1348.09L961.988 1292.7ZM1072.54 1154.67L1122.69 1139.95C1122.74 1140.07 1122.77 1140.13 1122.82 1140.25L1003 1218.38L1072.54 1154.67ZM1202.3 1035.64L1156.18 1098.24L1197.64 1039.92L1202.3 1035.64ZM1210.26 1033.75C1210.84 1032.56 1211.14 1031.22 1210.86 1029.86C1210.79 1029.52 1210.6 1029.25 1210.48 1028.94L1211.65 1028.15L1211.7 1034.79L1210.26 1033.75ZM1211.64 1026.93L1210.12 1027.93C1209.7 1027.26 1209.22 1026.79 1208.62 1026.38L1209.83 1023.96C1210.38 1024.25 1210.99 1024.34 1211.66 1024.39L1211.64 1026.93ZM1209.2 1023.66C1209.28 1023.68 1209.33 1023.8 1209.41 1023.83L1208.2 1026.25C1208.01 1026.14 1207.76 1026.06 1207.51 1025.98L1209.2 1023.66ZM1201.5 1034.59L1201.3 1034.79L1201.48 1034.53C1201.48 1034.53 1201.48 1034.53 1201.5 1034.59ZM1194.62 1042.66L1130.43 1132.89C1130.13 1132.69 1129.71 1132.56 1129.36 1132.39L1138.62 1093.98L1194.62 1042.66ZM1128.27 1132.2C1127.69 1132.17 1127.13 1132.2 1126.54 1132.33C1125.4 1132.71 1124.51 1133.48 1123.77 1134.46L1107.16 1122.87L1137.13 1095.41L1128.27 1132.2ZM1123.14 1135.53C1122.68 1136.5 1122.48 1137.54 1122.49 1138.61L1074.89 1152.56L1106.31 1123.76L1123.14 1135.53ZM1132.44 1137.35C1132.42 1136.98 1132.49 1136.63 1132.45 1136.19C1132.27 1135.08 1131.72 1134.26 1131.07 1133.58L1202.87 1036.14C1203.63 1036.76 1204.57 1036.95 1205.58 1036.96L1209.53 1140.94L1132.44 1137.35ZM1212.76 1026.18L1212.75 1024.27C1212.89 1024.26 1213.03 1024.25 1213.17 1024.24C1214.19 1023.94 1214.97 1023.23 1215.71 1022.41L1216.98 1023.4L1212.76 1026.18ZM1208.58 1023.03L1206.6 1025.84C1206.15 1025.8 1205.76 1025.89 1205.36 1025.97L1204.3 1020.17L1207.19 1019.88C1207.18 1020.04 1207.18 1020.2 1207.2 1020.42C1207.35 1021.47 1207.93 1022.35 1208.58 1023.03ZM1201.13 1033.52L1198.34 1037.5L1139.2 1091.78L1153.19 1033.79L1200.95 1032.24C1201 1032.52 1200.88 1032.75 1200.92 1033.03C1200.94 1033.24 1201.08 1033.39 1201.13 1033.52ZM1069.66 1155.49L1001.13 1218.36C1000.22 1217.38 999.005 1216.89 997.686 1216.99L995.108 1177.37L1069.66 1155.49ZM996.616 1217.18C996.559 1217.21 996.534 1217.15 996.476 1217.19C995.77 1217.38 995.14 1217.76 994.561 1218.27L967.193 1185.57L994.032 1177.71L996.616 1217.18ZM993.824 1219.25C993.265 1219.97 992.84 1220.84 992.58 1221.76L879.234 1212.09C879.272 1211.84 879.252 1211.62 879.233 1211.4L965.92 1185.95L993.824 1219.25ZM883.92 1341.85L884.309 1341.92L891.668 1343.23L899.988 1404.31L899.931 1404.34L881.156 1345.36C882.473 1344.57 883.445 1343.29 883.92 1341.85ZM1212.88 1234.23C1212.12 1234.46 1211.46 1234.94 1210.88 1235.44L1131.02 1141.35C1131.64 1140.6 1132.09 1139.79 1132.33 1138.8L1209.64 1142.4L1213.16 1234.21C1213.02 1234.22 1212.94 1234.19 1212.88 1234.23ZM1379.9 1148.75C1379.89 1148.53 1379.89 1148.37 1379.9 1148.21L1387.64 1145.3L1388.31 1148.96L1379.9 1148.75ZM1597.78 1066.36C1597.8 1065.89 1597.9 1065.45 1597.78 1064.98C1597.75 1064.92 1597.7 1064.8 1597.68 1064.74L1653.27 1034.91C1653.86 1036.16 1654.95 1037.04 1656.22 1037.34L1649.61 1071.1L1597.78 1066.36ZM1725.09 1054.87L1826.17 944.112C1826.82 944.639 1827.53 945.131 1828.42 945.206L1814.08 1081.09C1813.72 1081.08 1813.36 1081.07 1812.96 1081.15C1811.38 1081.65 1810.21 1082.97 1809.53 1084.45L1725.09 1054.87ZM1814.9 1080.98L1829.24 945.097C1829.6 945.108 1829.96 945.118 1830.36 945.033C1831.38 944.725 1832.16 944.022 1832.83 943.232L1887.68 990.697L1816.82 1081.81C1816.28 1081.37 1815.59 1081.1 1814.9 1080.98ZM1932.52 1024.19C1931.5 1024.5 1930.72 1025.2 1930.04 1025.99L1889.24 990.671L1964.6 893.691L1934.23 1024C1933.73 1024 1933.17 1024.03 1932.52 1024.19ZM1966.31 891.589L1977.55 877.13C1977.76 877.306 1978.01 877.386 1978.26 877.466C1978.34 877.492 1978.43 877.519 1978.48 877.642L1937.82 1013.7L1966.31 891.589ZM1980.74 866.764C1980.32 866.788 1979.96 866.777 1979.56 866.862C1979.31 866.939 1979.05 867.173 1978.82 867.312L1974.17 858.08L1986.95 803.202L1980.74 866.764ZM1977.56 868.073C1976 869.478 1975.15 871.751 1975.51 873.987C1975.51 873.987 1975.51 873.987 1975.54 874.048L1969.79 876.599L1973.58 860.276L1977.56 868.073ZM1975.9 874.905C1976.1 875.395 1976.31 875.884 1976.6 876.244L1966.95 888.669L1969.47 877.714L1975.9 874.905ZM2086.51 835.153C2086.29 835.98 2086.2 836.8 2086.25 837.612L1993.26 867.714C1992.56 864.996 1990.1 863.412 1987.46 864.314C1985.88 864.811 1984.71 866.131 1984.04 867.611C1983.85 867.496 1983.62 867.478 1983.43 867.363C1982.83 866.958 1982.14 866.684 1981.42 866.663L1987.72 802.124C1988.14 802.1 1988.5 802.111 1988.89 802.026C1990.48 801.528 1991.62 800.304 1992.32 798.729L2086.51 835.153ZM1968.24 878.38L1965.36 890.86L1888.35 989.907L1833.51 942.441C1834.31 941.111 1834.65 939.524 1834.43 937.97C1834.43 937.97 1834.43 937.97 1834.41 937.909L1968.24 878.38ZM1347.8 940.696L1373.74 1144.11C1372.88 1144.48 1372.13 1145.08 1371.49 1145.78L1218.86 1023.26L1343.49 938.622C1344.35 940.171 1346.03 940.922 1347.8 940.696ZM1137.67 1093.09L1105.99 1122.12L989.785 1040.94C990.058 1040.4 990.28 1039.72 990.387 1039.12L1151.93 1033.87L1137.67 1093.09ZM986.504 1044.08C987.637 1043.7 988.534 1042.93 989.271 1041.94L1105.17 1122.92L1071.98 1153.32L994.939 1175.94L986.364 1044.08C986.421 1044.05 986.447 1044.11 986.504 1044.08ZM874.098 1217.65L876.093 1268.74L873.398 1217.69C873.646 1217.77 873.901 1217.69 874.098 1217.65ZM874.28 1340.24C874.23 1340.8 874.148 1341.47 874.239 1342.03C874.393 1343.08 874.949 1343.9 875.594 1344.58L855.285 1373.72L795.012 1327.85L874.28 1340.24ZM901.032 1404.06L892.751 1343.42L931.211 1350.32L903.37 1404.33C902.656 1404 901.847 1403.95 901.032 1404.06ZM1043.38 1366.61L1044.97 1368.02C1044.73 1368.47 1044.57 1368.95 1044.42 1369.43L933.063 1349.43L1043.38 1366.61ZM1053.35 1366.79L1052.66 1366.68C1052.28 1366.29 1051.85 1365.94 1051.41 1365.74L1066.95 1319.55L1083.7 1342.63L1053.35 1366.79ZM1050.36 1365.3C1049.67 1365.19 1048.89 1365.2 1048.12 1365.43C1048.01 1365.5 1047.89 1365.57 1047.78 1365.64L999.662 1227.38C999.776 1227.31 999.948 1227.21 1000.06 1227.14L1066.16 1318.34L1050.36 1365.3ZM1000.88 1226.34C1001.55 1225.55 1002.06 1224.7 1002.29 1223.72L1095.51 1231.05L1066.57 1317.09L1000.88 1226.34ZM1002.45 1222.39C1002.47 1221.92 1002.52 1221.51 1002.48 1221.08C1002.41 1220.74 1002.25 1220.53 1002.12 1220.22L1123.17 1141.27C1123.67 1142.12 1124.34 1142.7 1125.14 1143.07L1095.98 1229.77L1002.45 1222.39ZM1126.22 1143.41C1126.3 1143.44 1126.38 1143.47 1126.47 1143.49L1119.54 1231.57L1097.15 1229.83L1126.22 1143.41ZM1127.62 1143.33C1127.9 1143.32 1128.21 1143.36 1128.44 1143.22C1129.2 1142.99 1129.86 1142.52 1130.44 1142.01L1210.3 1236.1C1209.74 1236.82 1209.29 1237.63 1209.08 1238.52L1120.69 1231.57L1127.62 1143.33ZM1210.67 1142.47L1212.57 1142.55L1213.04 1204.23L1210.67 1142.47ZM1210.62 1140.97L1206.62 1036.87C1206.67 1036.84 1206.76 1036.86 1206.82 1036.83C1207.64 1036.56 1208.41 1036.02 1209 1035.36L1211.7 1037.87L1212.49 1140.99L1210.62 1140.97ZM1212.88 1038.99L1327.37 1146.43L1213.69 1141.11L1212.88 1038.99ZM1213.39 1037.46L1370.54 1147.12C1370.36 1147.53 1370.18 1147.95 1370.08 1148.4L1329.63 1146.52L1213.39 1037.46ZM1379.82 1150.26L1388.62 1150.38L1400.23 1210.39C1400.23 1210.39 1400.23 1210.39 1400.17 1210.43L1377.13 1154.11C1378.53 1153.18 1379.48 1151.84 1379.82 1150.26ZM1389.74 1148.94L1388.92 1144.76L1476.44 1111.52L1448.58 1150.05L1389.74 1148.94ZM1388.67 1143.45L1388.06 1140.29L1531.96 1033.65C1532.1 1033.8 1532.23 1033.95 1532.37 1034.1L1477.74 1109.66L1388.67 1143.45ZM1533.2 1034.9C1534.29 1035.62 1535.68 1035.85 1537.07 1035.4C1537.75 1035.14 1538.35 1034.86 1538.87 1034.39L1570.32 1074.44L1479.65 1108.89L1533.2 1034.9ZM1539.52 1033.54C1539.72 1033.34 1539.87 1033.17 1539.99 1032.95L1588.41 1064.2C1587.87 1065.29 1587.65 1066.5 1587.77 1067.81L1571.25 1074.1L1539.52 1033.54ZM1588.14 1069.04C1588.19 1069.16 1588.22 1069.22 1588.27 1069.35L1575.44 1079.32L1572.11 1075.12L1588.14 1069.04ZM1588.87 1070.44C1590.01 1071.97 1591.86 1072.62 1593.78 1072.07C1594.1 1071.96 1594.36 1071.73 1594.64 1071.55L1630.96 1149.69C1630.85 1149.75 1630.79 1149.79 1630.74 1149.82L1576.21 1080.31L1588.87 1070.44ZM1650.33 1071.12L1656.98 1037.43C1657.5 1037.49 1658.06 1037.46 1658.63 1037.27C1660.22 1036.77 1661.39 1035.45 1662.06 1033.97L1722.83 1055.31L1703.94 1076L1650.33 1071.12ZM1724.24 1055.76L1808.96 1085.49L1705.64 1076.12L1724.24 1055.76ZM1817.77 1082.7L1888.65 991.488L1929.45 1026.81C1928.65 1028.14 1928.31 1029.72 1928.53 1031.28C1928.55 1031.34 1928.58 1031.4 1928.63 1031.52L1818.47 1084.04C1818.24 1083.49 1818.06 1083.06 1817.77 1082.7ZM1935.53 1024.36L1979.25 877.942C1980.1 878.27 1981.08 878.371 1982.07 878.002C1982.32 877.924 1982.53 877.725 1982.76 877.586L2010.01 934.892L1936.58 1024.81C1936.3 1024.66 1935.95 1024.5 1935.53 1024.36ZM1983.95 877.017C1984.65 876.445 1985.15 875.601 1985.58 874.731C1986.67 875.453 1988.03 875.626 1989.45 875.232C1992.05 874.426 1993.76 871.477 1993.42 868.613L2086.41 838.512C2086.58 839.254 2086.89 839.832 2087.32 840.34L2011.01 933.833L1983.95 877.017ZM2090.59 831.004C2090.45 831.012 2090.37 830.985 2090.25 831.054C2088.72 831.517 2087.53 832.776 2086.82 834.352L1992.6 798.023C1992.7 797.736 1992.79 797.448 1992.86 797.1L2090.64 792.016L2090.59 831.004ZM1986.07 801.967L1973.37 856.496L1957.42 824.873L1984.19 800.726C1984.73 801.322 1985.33 801.727 1986.07 801.967ZM1972.84 858.657L1968.55 877.046L1834 936.929C1833.92 936.746 1833.9 936.527 1833.77 936.378L1956.32 825.844L1972.84 858.657ZM1824.44 941.17C1824.47 941.231 1824.52 941.354 1824.54 941.415L1662.04 1028.61C1661.44 1027.52 1660.55 1026.76 1659.39 1026.38L1702.8 825.546C1703.31 825.548 1703.89 825.578 1704.46 825.389C1705.34 825.088 1706.09 824.482 1706.76 823.848L1825.46 936.568C1824.57 937.872 1824.14 939.589 1824.44 941.17ZM1217.96 1022.66L1216.36 1021.4C1217.05 1020.14 1217.36 1018.65 1217.11 1017.19C1217.06 1016.91 1216.9 1016.7 1216.8 1016.45L1328.78 947.355L1217.96 1022.66ZM1207.21 1018.57L1204.1 1018.84L1185.89 916.955L1210.5 1013.74C1208.65 1014.63 1207.41 1016.46 1207.21 1018.57ZM1184.04 911.326L1203.26 1018.88L1155.73 1023.06L1182.67 911.466C1183.09 911.442 1183.56 911.384 1184.04 911.326ZM1203.46 1020.22L1204.54 1026.24C1202.64 1027 1201.25 1028.84 1200.92 1030.96L1153.44 1032.49L1155.37 1024.42L1203.46 1020.22ZM1152.31 1032.56L1009.61 1037.25L1154.22 1024.58L1152.31 1032.56ZM964.987 1184.75L879.122 1209.94C878.878 1209.01 878.431 1208.29 877.754 1207.7L923.906 1135.72L964.987 1184.75ZM876.97 1207.02C876.204 1206.56 875.313 1206.49 874.389 1206.51L866.085 1079.93L865.511 1069.47C865.511 1069.47 865.511 1069.47 865.568 1069.43C866.275 1069.24 866.905 1068.86 867.483 1068.35L923.267 1134.88L876.97 1207.02ZM873.517 1206.65C873.459 1206.69 873.377 1206.66 873.319 1206.7C873.122 1206.74 872.976 1206.9 872.804 1207.01L869.739 1149.58L873.517 1206.65ZM872.097 1217.33L878.314 1334.96C878.314 1334.96 878.314 1334.96 878.257 1335C876.869 1335.45 875.738 1336.52 874.989 1337.81L756.352 1282.72L869.909 1215.35C870.433 1216.26 871.192 1216.88 872.097 1217.33ZM874.583 1338.9C874.526 1338.94 874.551 1339 874.494 1339.03L793.003 1326.3L744.709 1289.53L755.009 1283.46L874.583 1338.9ZM706.26 1262.06L726.36 1277.37L709.492 1303.59L704.155 1263.72C704.951 1263.39 705.701 1262.78 706.26 1262.06ZM727.393 1278.13L742.467 1289.65L710.158 1308.79L709.725 1305.52L727.393 1278.13ZM708.956 1309.51L708.497 1309.79C708.261 1309.4 707.968 1309.04 707.699 1308.74L708.652 1307.24L708.956 1309.51ZM705.571 1318.23C706.71 1317.7 707.664 1316.89 708.292 1315.82L709.912 1316.6L733.372 1491.61L705.571 1318.23ZM708.761 1314.54C708.793 1314.44 708.85 1314.41 708.824 1314.35L709.577 1314.43L709.641 1314.93L708.761 1314.54ZM709.122 1313.17C709.172 1312.6 709.253 1311.94 709.163 1311.38C709.143 1311.16 709.009 1311.01 708.933 1310.83L709.104 1310.73L709.453 1313.28L709.122 1313.17ZM710.307 1310L743.417 1290.38L790.027 1325.87L710.759 1313.48L710.307 1310ZM743.841 1288.82L728.168 1276.9L731.115 1272.28L753.887 1282.83L743.841 1288.82ZM727.135 1276.14L708.094 1261.65L729.904 1271.78L727.135 1276.14ZM708.336 1305.29L706.64 1307.92C705.901 1307.52 705.123 1307.38 704.283 1307.43L703.264 1267.25L708.336 1305.29ZM856.236 1374.45L876.455 1345.44C877.52 1346.1 878.826 1346.31 880.214 1345.85C880.329 1345.78 880.443 1345.72 880.558 1345.65L899.333 1404.62C898.703 1405 898.213 1405.38 897.743 1405.97L856.236 1374.45ZM1084.37 1343.53L1105.34 1372.43C1104.76 1373.09 1104.36 1373.86 1104.08 1374.72L1054.91 1367.08L1084.37 1343.53ZM1401.53 1209.91L1389.99 1150.4L1447.47 1151.49L1404.78 1210.48C1403.88 1209.87 1402.74 1209.72 1401.53 1209.91ZM1635 1148.7L1650.03 1072.45L1702.89 1077.25L1636.84 1149.67C1636.27 1149.16 1635.72 1148.88 1635 1148.7ZM2092.45 562.328C2092.82 562.182 2093.08 561.947 2093.42 561.74L2215.69 780.432C2214.73 781.395 2213.98 782.692 2213.78 784.113L2091.88 790.504L2092.11 562.378C2092.17 562.344 2092.31 562.336 2092.45 562.328ZM702.24 1318.32C702.928 1318.6 703.654 1318.62 704.47 1318.51L739.046 1534.35C738.078 1534.78 737.296 1535.48 736.648 1536.34L631.772 1465.26L702.24 1318.32ZM711.095 1315.66L710.965 1314.66L792.068 1327.33L854.542 1374.86L848.8 1383.08L711.095 1315.66ZM855.436 1375.62L895.201 1405.89L849.814 1383.62L855.436 1375.62ZM906.173 1407.78C905.916 1406.48 905.201 1405.45 904.301 1404.84L932.237 1350.55L1044.12 1370.61C1044.05 1370.96 1044.12 1371.3 1044.13 1371.67L906.173 1407.78ZM1053.66 1368.22L1093.33 1374.4L1054.09 1370.95C1054.14 1370.38 1054.19 1369.82 1054.1 1369.26C1054 1368.86 1053.82 1368.59 1053.66 1368.22ZM1107.76 1370.66C1107.19 1370.85 1106.62 1371.2 1106.13 1371.57L1085.27 1342.76L1112.44 1321.13L1108.57 1370.55C1108.32 1370.63 1108.01 1370.58 1107.76 1370.66ZM1084.6 1341.86L1067.43 1318.11L1096.72 1231.02L1119.41 1232.8L1112.56 1319.53L1084.6 1341.86ZM1120.55 1232.95L1208.86 1239.88C1208.84 1240.35 1208.8 1240.76 1208.84 1241.2C1208.9 1241.69 1209.12 1242.03 1209.29 1242.45L1113.74 1318.58L1120.55 1232.95ZM1214.32 1234.05L1213.58 1142.56L1328.85 1147.92L1346.58 1164.58L1218.16 1236.56C1217.44 1235 1216.05 1234.08 1214.32 1234.05ZM1331.22 1148.1L1369.93 1149.94C1369.95 1150.31 1369.88 1150.66 1369.92 1151.1C1369.94 1151.32 1370.04 1151.41 1370.12 1151.59L1348.03 1163.94L1331.22 1148.1ZM1370.48 1152.45C1371.49 1154.52 1373.63 1155.53 1375.84 1154.81C1376.09 1154.73 1376.3 1154.53 1376.53 1154.39L1399.57 1210.71C1399.23 1210.92 1398.97 1211.16 1398.71 1211.39L1348.79 1164.55L1370.48 1152.45ZM1405.56 1211.31L1448.84 1151.51L1482.09 1152.12L1405.83 1211.61C1405.78 1211.49 1405.67 1211.4 1405.56 1211.31ZM1449.87 1150.04L1478.29 1110.79L1571.12 1075.49L1574.63 1079.96L1483.93 1150.7L1449.87 1150.04ZM1575.41 1080.95L1630.06 1150.61C1629.39 1151.4 1628.85 1152.34 1628.64 1153.39L1485.89 1150.75L1575.41 1080.95ZM1937.49 1025.79L2010.63 936.204L2089.5 1102.21C2088.98 1102.67 2088.51 1103.27 2088.12 1103.88L1938.2 1031.26C1938.55 1030.21 1938.76 1029.16 1938.58 1028.04C1938.33 1027.12 1937.97 1026.42 1937.49 1025.79ZM2091.27 1101.13C2091.02 1101.21 2090.82 1101.41 2090.59 1101.55L2011.52 935.057L2088.12 841.235C2088.86 841.789 2089.69 842.055 2090.64 842.095L2091.61 1101.08C2091.55 1101.12 2091.39 1101.06 2091.27 1101.13ZM2220.9 779.353L2291.1 538.791C2291.72 538.882 2292.42 538.842 2293.1 538.584C2293.66 538.395 2294.18 538.084 2294.67 537.711L2362.78 638.199C2361.44 639.623 2360.66 641.704 2361.01 643.722C2361.15 644.404 2361.38 644.954 2361.69 645.532L2222.32 780.338C2221.92 779.89 2221.48 779.539 2220.9 779.353ZM2290 538.384L2219.77 778.884C2219.16 778.793 2218.46 778.833 2217.78 779.091C2217.41 779.237 2217.15 779.472 2216.81 779.679L2094.54 560.987C2095.62 559.954 2096.29 558.475 2096.43 556.931L2287.17 534.346C2287.16 534.503 2287.13 534.598 2287.18 534.721C2287.5 536.52 2288.6 537.774 2290 538.384ZM2090.79 562.485L2090.61 790.576L1992.86 795.721C1992.84 795.503 1992.9 795.311 1992.86 795.032C1992.58 793.512 1991.79 792.303 1990.72 791.643L2089.79 562.322C2090.1 562.367 2090.43 562.474 2090.79 562.485ZM1982.92 798.197C1983.03 798.817 1983.3 799.272 1983.5 799.762L1956.85 823.84L1861.07 633.853L1984.35 793.039C1983.23 794.481 1982.57 796.336 1982.92 798.197ZM1858.34 633.507C1858.6 633.43 1858.86 633.196 1859.09 633.057L1955.75 824.811L1833.08 935.415C1831.96 934.1 1830.19 933.479 1828.41 934.019C1827.53 934.32 1826.78 934.926 1826.14 935.621L1707.44 822.901C1708.3 821.536 1708.7 819.915 1708.45 818.299C1708.29 817.399 1707.9 816.638 1707.34 815.98L1854.31 632.795C1855.46 633.639 1856.9 633.996 1858.34 633.507ZM1342.94 937.493L1216.5 1015.56C1215.48 1013.65 1213.37 1012.7 1211.19 1013.33L1185.15 910.887C1186.57 910.179 1187.66 908.832 1188.14 907.238L1342.68 934.813C1342.6 935.476 1342.58 936.104 1342.69 936.724C1342.68 937.038 1342.84 937.248 1342.94 937.493ZM1181.59 911.12L1154.55 1023.16L990.447 1037.55C990.453 1037.4 990.459 1037.24 990.44 1037.02C990.395 1036.74 990.235 1036.53 990.107 1036.22L1179.14 909.379C1179.8 910.281 1180.68 910.827 1181.59 911.12ZM982.101 1042.98L923.896 1133.81L868.246 1067.43C869.072 1066.32 869.572 1064.95 869.576 1063.41L980.535 1040.09C980.535 1040.09 980.56 1040.15 980.503 1040.19C980.735 1041.43 981.342 1042.36 982.101 1042.98ZM869.486 1214C869.537 1214.12 869.563 1214.18 869.614 1214.3L755.23 1282.1L731.909 1271.26L747.558 1246.93L869.486 1214ZM730.615 1270.74L707.403 1259.99C707.656 1259.23 707.712 1258.5 707.685 1257.75L745.578 1247.51L730.615 1270.74ZM702.633 1264.02L703.748 1307.52C703.55 1307.56 703.385 1307.51 703.187 1307.55C700.469 1308.43 698.641 1311.6 699.169 1314.58C699.188 1314.8 699.322 1314.95 699.374 1315.07L676.667 1328.87L701.321 1263.97C701.735 1264.11 702.156 1264.08 702.633 1264.02ZM699.854 1316.39C700.142 1316.91 700.518 1317.29 700.977 1317.71L640.09 1425.11L675.887 1330.95L699.854 1316.39ZM616.77 1461.29L553.288 1503.47L482.011 1452.9C482.284 1452.35 482.5 1451.83 482.607 1451.23L616.435 1459.11C616.416 1459.58 616.315 1460.03 616.437 1460.49C616.565 1460.8 616.725 1461.01 616.77 1461.29ZM404.5 1601.17L379.508 1615.5L471.811 1461.44L404.5 1601.17ZM403.86 1602.56L399.907 1610.77L362.354 1645.5C362.195 1645.29 362.061 1645.14 361.869 1645.02L378.581 1617.06L403.86 1602.56ZM361.002 1644.32C359.988 1643.78 358.848 1643.63 357.575 1644.02C355.226 1644.74 353.676 1647.21 353.604 1649.79L314.531 1655.14C314.511 1654.92 314.574 1654.73 314.555 1654.51C314.535 1654.29 314.401 1654.15 314.299 1653.9L376.666 1618.14L361.002 1644.32ZM635.92 1432.47L624.784 1452.15L673.311 1332.5L674.112 1332.02L635.92 1432.47ZM314.506 1655.77L353.58 1650.42C353.6 1650.63 353.536 1650.83 353.556 1651.04C354.084 1654.02 356.756 1655.78 359.531 1654.87C359.729 1654.83 359.817 1654.7 359.989 1654.6L366.108 1673.52C364.937 1674.15 364.06 1675.14 363.566 1676.36L314.299 1657.5C314.432 1656.96 314.539 1656.36 314.506 1655.77ZM371.128 1673.86L396.311 1632.19L586.863 1541.24L372.175 1674.99C371.913 1674.54 371.562 1674.21 371.128 1673.86ZM600.474 1530.56L631.315 1466.23L736.083 1537.21C735.81 1537.76 735.594 1538.28 735.487 1538.88L602.483 1535.02C602.526 1534.61 602.57 1534.2 602.474 1533.8C602.223 1532.34 601.482 1531.26 600.474 1530.56ZM744.067 1535.38L849.013 1384.79L896.568 1408.13C896.195 1409.13 896.069 1410.2 896.224 1411.26C896.289 1411.75 896.525 1412.15 896.704 1412.58L744.303 1535.77C744.284 1535.56 744.175 1535.47 744.067 1535.38ZM1044.21 1372.7C1044.82 1375.55 1047.39 1377.22 1050.1 1376.35C1052.12 1375.67 1053.64 1373.83 1054.03 1371.68L1103.53 1375.98L1103.77 1376.06C1103.74 1376.15 1103.77 1376.22 1103.79 1376.28L912.771 1407.09L1044.21 1372.7ZM1109.69 1370.49L1113.68 1320.15L1209.9 1243.55C1209.95 1243.67 1210.03 1243.7 1210.11 1243.72L1111.79 1371.37C1111.16 1370.91 1110.5 1370.54 1109.69 1370.49ZM1218.65 1237.57L1347.47 1165.35L1397.77 1212.57C1397.26 1213.41 1396.97 1214.43 1396.9 1215.47L1218.79 1238.41C1218.8 1238.25 1218.83 1238.15 1218.78 1238.03C1218.78 1237.87 1218.67 1237.79 1218.65 1237.57ZM1406.43 1212.71L1484.04 1152.17L1628.53 1154.84L1406.76 1213.5C1406.69 1213.16 1406.53 1212.95 1406.43 1212.71ZM1638.5 1152.96L1809.16 1089.05C1809.96 1091.48 1812.26 1092.85 1814.63 1092.18L1858.01 1268.51C1857.12 1268.96 1856.34 1269.67 1855.77 1270.54L1638.14 1155.86C1638.51 1154.87 1638.63 1153.95 1638.5 1152.96ZM1861.96 1268.19L1932.42 1035.29C1933.09 1035.34 1933.79 1035.3 1934.5 1035.11C1935.89 1034.65 1937.05 1033.65 1937.74 1032.39L2087.66 1105.01C2087.31 1106.06 2087.1 1107.11 2087.28 1108.22C2087.35 1108.56 2087.51 1108.77 2087.64 1109.08L1863.86 1269.65C1863.36 1268.95 1862.73 1268.49 1861.96 1268.19ZM2092.85 1100.95L2091.87 841.962C2092.01 841.954 2092.09 841.981 2092.21 841.912C2093.74 841.449 2094.93 840.19 2095.6 838.71L2252.06 896.261C2251.8 897.185 2251.68 898.1 2251.84 899C2252 899.9 2252.39 900.661 2252.96 901.319L2095.25 1101.72C2094.54 1101.23 2093.8 1100.99 2092.85 1100.95ZM2255.86 891.971C2255.75 892.041 2255.63 892.11 2255.52 892.179L2220.85 789.352C2222.91 788.107 2224.25 785.462 2223.76 782.92C2223.62 782.238 2223.36 781.626 2223.07 781.11L2362.44 646.304C2362.71 646.602 2362.9 646.874 2363.2 647.076L2258.52 891.977C2257.72 891.772 2256.82 891.697 2255.86 891.971ZM2435.91 405.839L2295.87 529.088C2294.72 527.711 2292.95 527.091 2291.11 527.666C2291 527.735 2290.94 527.769 2290.83 527.838L2241.11 380.958C2242.35 380.136 2243.26 378.893 2243.71 377.395L2435.31 402.677C2435.26 403.244 2435.18 403.75 2435.27 404.309C2435.45 404.894 2435.71 405.35 2435.91 405.839ZM2239.97 381.65C2240.08 381.581 2240.14 381.546 2240.26 381.477L2290.03 528.323C2288.45 529.353 2287.4 531.136 2287.21 533.089L2096.46 555.613C2096.46 555.456 2096.49 555.36 2096.44 555.238C2096.28 554.338 2095.89 553.577 2095.41 552.946L2235.86 380.912C2237.03 381.817 2238.47 382.174 2239.97 381.65ZM2088.61 561.888L1989.54 791.209C1988.71 790.942 1987.82 790.868 1986.85 791.142C1986.23 791.365 1985.66 791.711 1985.17 792.084L1860.9 631.575C1861.9 630.359 1862.41 628.826 1862.33 627.263L2086.62 559.024C2086.99 560.256 2087.71 561.281 2088.61 561.888ZM1853.48 631.997L1706.5 815.182C1705.36 814.338 1703.95 814.042 1702.48 814.47C1702.42 814.505 1702.36 814.54 1702.31 814.574L1626.77 593.573C1627.89 592.819 1628.71 591.707 1629.16 590.366L1852.41 627.89C1852.36 628.457 1852.31 629.023 1852.4 629.582C1852.61 630.605 1853 631.366 1853.48 631.997ZM1625.51 594.333C1625.57 594.299 1625.62 594.264 1625.68 594.23L1701.22 815.231C1700.82 815.474 1700.5 815.742 1700.21 816.072L1547.75 677.504C1548.55 676.173 1548.9 674.587 1548.62 673.067C1548.48 672.228 1548.12 671.528 1547.72 670.924L1621.02 593.209C1622.15 594.367 1623.81 594.9 1625.51 594.333ZM1541.42 679.869L1477.78 878.659C1477.09 878.542 1476.36 878.52 1475.6 878.752C1475.03 878.941 1474.6 879.278 1474.14 879.555L1340.14 690.267C1340.96 689.311 1341.51 688.215 1341.7 686.951L1538.74 675.508C1538.76 675.727 1538.72 675.979 1538.74 676.198C1539 678.032 1540.08 679.224 1541.42 679.869ZM1333.91 691.655C1334.59 692.086 1335.45 692.257 1336.29 692.209L1346.77 929.661C1346.71 929.695 1346.69 929.634 1346.63 929.669C1344.79 930.243 1343.52 931.851 1342.92 933.671L1188.38 906.096C1188.46 905.434 1188.49 904.805 1188.37 904.185C1188.22 903.129 1187.66 902.314 1187.02 901.63L1333.91 691.655ZM1178.79 908.208L989.761 1035.05C988.758 1033.51 987.024 1032.8 985.165 1033.15L965.913 904.066C967.759 903.334 969.112 901.596 969.554 899.565L1178.45 906.347C1178.46 906.723 1178.39 907.071 1178.4 907.447C1178.53 907.753 1178.69 907.963 1178.79 908.208ZM962.174 903.871C963.022 904.355 963.997 904.457 965.066 904.27L984.318 1033.36C982.046 1034.27 980.554 1036.7 980.597 1039.21L869.638 1062.53C869.612 1062.47 869.612 1062.47 869.669 1062.43C869.438 1061.19 868.831 1060.26 868.021 1059.52L962.174 903.871ZM746.499 1246.11L707.645 1256.63C707.478 1255.88 707.139 1255.24 706.743 1254.64L858.465 1072.34L746.499 1246.11ZM674.86 1330.03L674.115 1330.48L683.264 1307.93L674.86 1330.03ZM623.112 1453.47C622.283 1453.2 621.417 1453.19 620.513 1453.43C618.501 1454.11 617.033 1455.91 616.585 1458.1L482.758 1450.22C482.776 1449.75 482.877 1449.31 482.755 1448.84C482.736 1448.62 482.627 1448.54 482.55 1448.35L671.847 1333.46L623.112 1453.47ZM377.536 1616.62L313.966 1653.1C313.838 1652.8 313.653 1652.53 313.494 1652.32L473.127 1457.04L377.536 1616.62Z" fill="#777FAD"/>
</g>
<defs>
<filter id="filter0_f_1_809" x="55.6704" y="962.644" width="1726.54" height="271.923" filterUnits="userSpaceOnUse" color-interpolation-filters="sRGB">
<feFlood flood-opacity="0" result="BackgroundImageFix"/>
<feBlend mode="normal" in="SourceGraphic" in2="BackgroundImageFix" result="shape"/>
<feGaussianBlur stdDeviation="54.6341" result="effect1_foregroundBlur_1_809"/>
</filter>
</defs>
</svg>
